<svg xmlns="http://www.w3.org/2000/svg" width="877.164306640625" height="499.5315246582031" viewBox="-572.4708862304688 -110.65230560302734 877.164306640625 499.5315246582031"><title>Neo4j Graph Visualization</title><desc>Created using Neo4j (http://www.neo4j.com/)</desc><g class="layer relationships"><g class="relationship" transform="translate(268.92601719845607 -25.655000055494497) rotate(525.3286609632486)"><path class="b-outline" fill="#A5ABB6" stroke="none" d="M 25 0.5 L 286.7035630255629 0.5 L 286.7035630255629 -0.5 L 25 -0.5 Z M 373.3246567755629 0.5 L 635.0282198011258 0.5 L 635.0282198011258 3.5 L 642.0282198011258 0 L 635.0282198011258 -3.5 L 635.0282198011258 -0.5 L 373.3246567755629 -0.5 Z"/><text text-anchor="middle" pointer-events="none" font-size="8px" fill="#000000" x="330.0141099005629" y="3" transform="rotate(180 330.0141099005629 0)" font-family="Helvetica Neue, Helvetica, Arial, sans-serif">SUB_CATEGORY_OF</text></g><g class="relationship" transform="translate(-102.98417804245852 116.96148165228398) rotate(534.4995857982387)"><path class="b-outline" fill="#A5ABB6" stroke="none" d="M 25 0.5 L 90.50636897229066 0.5 L 90.50636897229066 -0.5 L 25 -0.5 Z M 177.12746272229066 0.5 L 242.63383169458132 0.5 L 242.63383169458132 3.5 L 249.63383169458132 0 L 242.63383169458132 -3.5 L 242.63383169458132 -0.5 L 177.12746272229066 -0.5 Z"/><text text-anchor="middle" pointer-events="none" font-size="8px" fill="#000000" x="133.81691584729066" y="3" transform="rotate(180 133.81691584729066 0)" font-family="Helvetica Neue, Helvetica, Arial, sans-serif">SUB_CATEGORY_OF</text></g><g class="relationship" transform="translate(-462.50513587726385 -29.34749912473931) rotate(423.47878750168513)"><path class="b-outline" fill="#A5ABB6" stroke="none" d="M 25 0.5 L 49.65760465359065 0.5 L 49.65760465359065 -0.5 L 25 -0.5 Z M 136.27869840359065 0.5 L 160.9363030571813 0.5 L 160.9363030571813 3.5 L 167.9363030571813 0 L 160.9363030571813 -3.5 L 160.9363030571813 -0.5 L 136.27869840359065 -0.5 Z"/><text text-anchor="middle" pointer-events="none" font-size="8px" fill="#000000" x="92.96815152859065" y="3" font-family="Helvetica Neue, Helvetica, Arial, sans-serif">SUB_CATEGORY_OF</text></g><g class="relationship" transform="translate(-380.80345641652974 -81.65230426418812) rotate(448.8666544057348)"><path class="b-outline" fill="#A5ABB6" stroke="none" d="M 25 0.5 L 65.68058396729542 0.5 L 65.68058396729542 -0.5 L 25 -0.5 Z M 152.30167771729543 0.5 L 192.98226168459084 0.5 L 192.98226168459084 3.5 L 199.98226168459084 0 L 192.98226168459084 -3.5 L 192.98226168459084 -0.5 L 152.30167771729543 -0.5 Z"/><text text-anchor="middle" pointer-events="none" font-size="8px" fill="#000000" x="108.99113084229542" y="3" font-family="Helvetica Neue, Helvetica, Arial, sans-serif">SUB_CATEGORY_OF</text></g><g class="relationship" transform="translate(-376.3534597570034 143.28594415622598) rotate(427.4018723640518)"><path class="b-outline" fill="#A5ABB6" stroke="none" d="M 25 0.5 L 59.904839892461794 0.5 L 59.904839892461794 -0.5 L 25 -0.5 Z M 146.52593364246178 0.5 L 181.4307735349236 0.5 L 181.4307735349236 3.5 L 188.4307735349236 0 L 181.4307735349236 -3.5 L 181.4307735349236 -0.5 L 146.52593364246178 -0.5 Z"/><text text-anchor="middle" pointer-events="none" font-size="8px" fill="#000000" x="103.2153867674618" y="3" font-family="Helvetica Neue, Helvetica, Arial, sans-serif">SUB_CATEGORY_OF</text></g><g class="relationship" transform="translate(-457.1897040051324 68.29119130540334) rotate(402.8532116799731)"><path class="b-outline" fill="#A5ABB6" stroke="none" d="M 25 0.5 L 26.478976516163563 0.5 L 26.478976516163563 -0.5 L 25 -0.5 Z M 76.78757026616356 0.5 L 78.26654678232713 0.5 L 78.26654678232713 3.5 L 85.26654678232713 0 L 78.26654678232713 -3.5 L 78.26654678232713 -0.5 L 76.78757026616356 -0.5 Z"/><text text-anchor="middle" pointer-events="none" font-size="8px" fill="#000000" x="51.63327339116356" y="3" font-family="Helvetica Neue, Helvetica, Arial, sans-serif">SUB_CAT…</text></g><g class="relationship" transform="translate(-540.4013792575983 121.5745696827927) rotate(367.53915332001003)"><path class="b-outline" fill="#A5ABB6" stroke="none" d="M 25 0.5 L 35.92865736639831 0.5 L 35.92865736639831 -0.5 L 25 -0.5 Z M 122.54975111639831 0.5 L 133.47840848279662 0.5 L 133.47840848279662 3.5 L 140.47840848279662 0 L 133.47840848279662 -3.5 L 133.47840848279662 -0.5 L 122.54975111639831 -0.5 Z"/><text text-anchor="middle" pointer-events="none" font-size="8px" fill="#000000" x="79.23920424139831" y="3" font-family="Helvetica Neue, Helvetica, Arial, sans-serif">SUB_CATEGORY_OF</text></g><g class="relationship" transform="translate(-525.7089523157154 217.37986458210895) rotate(333.61440272760683)"><path class="b-outline" fill="#A5ABB6" stroke="none" d="M 25 0.5 L 36.55157312193346 0.5 L 36.55157312193346 -0.5 L 25 -0.5 Z M 123.17266687193346 0.5 L 134.72423999386692 0.5 L 134.72423999386692 3.5 L 141.72423999386692 0 L 134.72423999386692 -3.5 L 134.72423999386692 -0.5 L 123.17266687193346 -0.5 Z"/><text text-anchor="middle" pointer-events="none" font-size="8px" fill="#000000" x="79.86211999693346" y="3" font-family="Helvetica Neue, Helvetica, Arial, sans-serif">SUB_CATEGORY_OF</text></g><g class="relationship" transform="translate(-488.3655333929932 308.93901142764463) rotate(304.06595706297543)"><path class="b-outline" fill="#A5ABB6" stroke="none" d="M 25 0.5 L 53.17400610277697 0.5 L 53.17400610277697 -0.5 L 25 -0.5 Z M 139.79509985277696 0.5 L 167.96910595555394 0.5 L 167.96910595555394 3.5 L 174.96910595555394 0 L 167.96910595555394 -3.5 L 167.96910595555394 -0.5 L 139.79509985277696 -0.5 Z"/><text text-anchor="middle" pointer-events="none" font-size="8px" fill="#000000" x="96.48455297777697" y="3" font-family="Helvetica Neue, Helvetica, Arial, sans-serif">SUB_CATEGORY_OF</text></g><g class="relationship" transform="translate(-326.9649110811711 248.64890041176216) rotate(244.8853153904987)"><path class="b-outline" fill="#A5ABB6" stroke="none" d="M 25 0.5 L 26.85973608345595 0.5 L 26.85973608345595 -0.5 L 25 -0.5 Z M 82.50426733345594 0.5 L 84.3640034169119 0.5 L 84.3640034169119 3.5 L 91.3640034169119 0 L 84.3640034169119 -3.5 L 84.3640034169119 -0.5 L 82.50426733345594 -0.5 Z"/><text text-anchor="middle" pointer-events="none" font-size="8px" fill="#000000" x="54.68200170845595" y="3" transform="rotate(180 54.68200170845595 0)" font-family="Helvetica Neue, Helvetica, Arial, sans-serif">SUB_CATE…</text></g><g class="relationship" transform="translate(-261.57314066512714 174.33773724757282) rotate(195.13800194069393)"><path class="b-outline" fill="#A5ABB6" stroke="none" d="M 25 0.5 L 25.019613701366218 0.5 L 25.019613701366218 -0.5 L 25 -0.5 Z M 86.88680120136621 0.5 L 86.90641490273244 0.5 L 86.90641490273244 3.5 L 93.90641490273244 0 L 86.90641490273244 -3.5 L 86.90641490273244 -0.5 L 86.88680120136621 -0.5 Z"/><text text-anchor="middle" pointer-events="none" font-size="8px" fill="#000000" x="55.95320745136622" y="3" transform="rotate(180 55.95320745136622 0)" font-family="Helvetica Neue, Helvetica, Arial, sans-serif">SUB_CATEG…</text></g><g class="relationship" transform="translate(-286.37745873415986 59.68605995933557) rotate(497.1037507363989)"><path class="b-outline" fill="#A5ABB6" stroke="none" d="M 25 0.5 L 26.976139594552613 0.5 L 26.976139594552613 -0.5 L 25 -0.5 Z M 88.84332709455262 0.5 L 90.81946668910523 0.5 L 90.81946668910523 3.5 L 97.81946668910523 0 L 90.81946668910523 -3.5 L 90.81946668910523 -0.5 L 88.84332709455262 -0.5 Z"/><text text-anchor="middle" pointer-events="none" font-size="8px" fill="#000000" x="57.90973334455261" y="3" transform="rotate(180 57.90973334455261 0)" font-family="Helvetica Neue, Helvetica, Arial, sans-serif">SUB_CATEG…</text></g><g class="relationship" transform="translate(-374.8007198910953 14.410077851387362) rotate(450.6902854592628)"><path class="b-outline" fill="#A5ABB6" stroke="none" d="M 25 0.5 L 26.897688090987984 0.5 L 26.897688090987984 -0.5 L 25 -0.5 Z M 94.98753184098798 0.5 L 96.88521993197597 0.5 L 96.88521993197597 3.5 L 103.88521993197597 0 L 96.88521993197597 -3.5 L 96.88521993197597 -0.5 L 94.98753184098798 -0.5 Z"/><text text-anchor="middle" pointer-events="none" font-size="8px" fill="#000000" x="60.942609965987984" y="3" transform="rotate(180 60.942609965987984 0)" font-family="Helvetica Neue, Helvetica, Arial, sans-serif">SUB_CATEGO…</text></g><g class="relationship" transform="translate(-205.52523427360114 3.9414043025907564) rotate(500.7958834358572)"><path class="b-outline" fill="#A5ABB6" stroke="none" d="M 25 0.5 L 63.41556551316039 0.5 L 63.41556551316039 -0.5 L 25 -0.5 Z M 150.0366592631604 0.5 L 188.45222477632078 0.5 L 188.45222477632078 3.5 L 195.45222477632078 0 L 188.45222477632078 -3.5 L 188.45222477632078 -0.5 L 150.0366592631604 -0.5 Z"/><text text-anchor="middle" pointer-events="none" font-size="8px" fill="#000000" x="106.72611238816039" y="3" transform="rotate(180 106.72611238816039 0)" font-family="Helvetica Neue, Helvetica, Arial, sans-serif">SUB_CATEGORY_OF</text></g><g class="relationship" transform="translate(-197.82099590906006 100.88042814158321) rotate(526.6385494317958)"><path class="b-outline" fill="#A5ABB6" stroke="none" d="M 25 0.5 L 44.93920576238497 0.5 L 44.93920576238497 -0.5 L 25 -0.5 Z M 131.56029951238497 0.5 L 151.49950527476994 0.5 L 151.49950527476994 3.5 L 158.49950527476994 0 L 151.49950527476994 -3.5 L 151.49950527476994 -0.5 L 131.56029951238497 -0.5 Z"/><text text-anchor="middle" pointer-events="none" font-size="8px" fill="#000000" x="88.24975263738497" y="3" transform="rotate(180 88.24975263738497 0)" font-family="Helvetica Neue, Helvetica, Arial, sans-serif">SUB_CATEGORY_OF</text></g><g class="relationship" transform="translate(-293.6112935398075 -38.42358523527039) rotate(474.4823381007242)"><path class="b-outline" fill="#A5ABB6" stroke="none" d="M 25 0.5 L 53.02008362234932 0.5 L 53.02008362234932 -0.5 L 25 -0.5 Z M 139.64117737234932 0.5 L 167.66126099469864 0.5 L 167.66126099469864 3.5 L 174.66126099469864 0 L 167.66126099469864 -3.5 L 167.66126099469864 -0.5 L 139.64117737234932 -0.5 Z"/><text text-anchor="middle" pointer-events="none" font-size="8px" fill="#000000" x="96.33063049734932" y="3" transform="rotate(180 96.33063049734932 0)" font-family="Helvetica Neue, Helvetica, Arial, sans-serif">SUB_CATEGORY_OF</text></g><g class="relationship" transform="translate(-376.3534597570034 143.28594415622598) rotate(215.37321327962985)"><path class="b-outline" fill="#A5ABB6" stroke="none" d="M 25 0.5 L 55.66536572482251 0.5 L 55.66536572482251 -0.5 L 25 -0.5 Z M 142.2864594748225 0.5 L 172.95182519964501 0.5 L 172.95182519964501 3.5 L 179.95182519964501 0 L 172.95182519964501 -3.5 L 172.95182519964501 -0.5 L 142.2864594748225 -0.5 Z"/><text text-anchor="middle" pointer-events="none" font-size="8px" fill="#000000" x="98.97591259982251" y="3" transform="rotate(180 98.97591259982251 0)" font-family="Helvetica Neue, Helvetica, Arial, sans-serif">SUB_CATEGORY_OF</text></g><g class="relationship" transform="translate(-163.72553926542855 193.68513604573477) rotate(193.3347235495698)"><path class="b-outline" fill="#A5ABB6" stroke="none" d="M 25 0.5 L 62.44913360651043 0.5 L 62.44913360651043 -0.5 L 25 -0.5 Z M 149.07022735651043 0.5 L 186.51936096302086 0.5 L 186.51936096302086 3.5 L 193.51936096302086 0 L 186.51936096302086 -3.5 L 186.51936096302086 -0.5 L 149.07022735651043 -0.5 Z"/><text text-anchor="middle" pointer-events="none" font-size="8px" fill="#000000" x="105.75968048151043" y="3" transform="rotate(180 105.75968048151043 0)" font-family="Helvetica Neue, Helvetica, Arial, sans-serif">SUB_CATEGORY_OF</text></g><g class="relationship" transform="translate(-427.8494829757397 233.3579810344287) rotate(299.75748551759295)"><path class="b-outline" fill="#A5ABB6" stroke="none" d="M 25 0.5 L 25.37094718326103 0.5 L 25.37094718326103 -0.5 L 25 -0.5 Z M 71.38266593326102 0.5 L 71.75361311652206 0.5 L 71.75361311652206 3.5 L 78.75361311652206 0 L 71.75361311652206 -3.5 L 71.75361311652206 -0.5 L 71.38266593326102 -0.5 Z"/><text text-anchor="middle" pointer-events="none" font-size="8px" fill="#000000" x="48.37680655826103" y="3" font-family="Helvetica Neue, Helvetica, Arial, sans-serif">SUB_CA…</text></g><g class="relationship" transform="translate(-231.064181747678 266.7190373983372) rotate(220.35015739217022)"><path class="b-outline" fill="#A5ABB6" stroke="none" d="M 25 0.5 L 48.5108867217871 0.5 L 48.5108867217871 -0.5 L 25 -0.5 Z M 135.1319804717871 0.5 L 158.6428671935742 0.5 L 158.6428671935742 3.5 L 165.6428671935742 0 L 158.6428671935742 -3.5 L 158.6428671935742 -0.5 L 135.1319804717871 -0.5 Z"/><text text-anchor="middle" pointer-events="none" font-size="8px" fill="#000000" x="91.8214335967871" y="3" transform="rotate(180 91.8214335967871 0)" font-family="Helvetica Neue, Helvetica, Arial, sans-serif">SUB_CATEGORY_OF</text></g><g class="relationship" transform="translate(-390.0883161728393 323.27682100758045) rotate(274.36370533279114)"><path class="b-outline" fill="#A5ABB6" stroke="none" d="M 25 0.5 L 43.44653322191411 0.5 L 43.44653322191411 -0.5 L 25 -0.5 Z M 130.0676269719141 0.5 L 148.51416019382822 0.5 L 148.51416019382822 3.5 L 155.51416019382822 0 L 148.51416019382822 -3.5 L 148.51416019382822 -0.5 L 130.0676269719141 -0.5 Z"/><text text-anchor="middle" pointer-events="none" font-size="8px" fill="#000000" x="86.75708009691411" y="3" font-family="Helvetica Neue, Helvetica, Arial, sans-serif">SUB_CATEGORY_OF</text></g><g class="relationship" transform="translate(82.80877724631517 174.87171057140387) rotate(538.1638028790478)"><path class="b-outline" fill="#A5ABB6" stroke="none" d="M 25 0.5 L 26.311217405927337 0.5 L 26.311217405927337 -0.5 L 25 -0.5 Z M 72.32293615592734 0.5 L 73.63415356185467 0.5 L 73.63415356185467 3.5 L 80.63415356185467 0 L 73.63415356185467 -3.5 L 73.63415356185467 -0.5 L 72.32293615592734 -0.5 Z"/><text text-anchor="middle" pointer-events="none" font-size="8px" fill="#000000" x="49.31707678092734" y="3" transform="rotate(180 49.31707678092734 0)" font-family="Helvetica Neue, Helvetica, Arial, sans-serif">SUB_CA…</text></g><g class="relationship" transform="translate(-163.72553926542855 193.68513604573477) rotate(353.7533511699561)"><path class="b-outline" fill="#A5ABB6" stroke="none" d="M 25 0.5 L 25.642286050459404 0.5 L 25.642286050459404 -0.5 L 25 -0.5 Z M 109.1540048004594 0.5 L 109.79629085091881 0.5 L 109.79629085091881 3.5 L 116.79629085091881 0 L 109.79629085091881 -3.5 L 109.79629085091881 -0.5 L 109.1540048004594 -0.5 Z"/><text text-anchor="middle" pointer-events="none" font-size="8px" fill="#000000" x="67.3981454254594" y="3" font-family="Helvetica Neue, Helvetica, Arial, sans-serif">SUB_CATEGORY_…</text></g><g class="relationship" transform="translate(-102.98417804245852 116.96148165228398) rotate(397.38533633274307)"><path class="b-outline" fill="#A5ABB6" stroke="none" d="M 25 0.5 L 26.63786296913915 0.5 L 26.63786296913915 -0.5 L 25 -0.5 Z M 67.31364421913915 0.5 L 68.9515071882783 0.5 L 68.9515071882783 3.5 L 75.9515071882783 0 L 68.9515071882783 -3.5 L 68.9515071882783 -0.5 L 67.31364421913915 -0.5 Z"/><text text-anchor="middle" pointer-events="none" font-size="8px" fill="#000000" x="46.97575359413915" y="3" font-family="Helvetica Neue, Helvetica, Arial, sans-serif">SUB_C…</text></g><g class="relationship" transform="translate(82.80877724631517 174.87171057140387) rotate(358.896989288133)"><path class="b-outline" fill="#A5ABB6" stroke="none" d="M 25 0.5 L 49.64966283984184 0.5 L 49.64966283984184 -0.5 L 25 -0.5 Z M 136.27075658984182 0.5 L 160.92041942968368 0.5 L 160.92041942968368 3.5 L 167.92041942968368 0 L 160.92041942968368 -3.5 L 160.92041942968368 -0.5 L 136.27075658984182 -0.5 Z"/><text text-anchor="middle" pointer-events="none" font-size="8px" fill="#000000" x="92.96020971484184" y="3" font-family="Helvetica Neue, Helvetica, Arial, sans-serif">SUB_CATEGORY_OF</text></g><g class="relationship" transform="translate(275.69344890358144 171.15799644755833) rotate(515.385646244689)"><path class="b-outline" fill="#A5ABB6" stroke="none" d="M 25 0.5 L 122.64320122406582 0.5 L 122.64320122406582 -0.5 L 25 -0.5 Z M 209.26429497406582 0.5 L 306.90749619813164 0.5 L 306.90749619813164 3.5 L 313.90749619813164 0 L 306.90749619813164 -3.5 L 306.90749619813164 -0.5 L 209.26429497406582 -0.5 Z"/><text text-anchor="middle" pointer-events="none" font-size="8px" fill="#000000" x="165.95374809906582" y="3" transform="rotate(180 165.95374809906582 0)" font-family="Helvetica Neue, Helvetica, Arial, sans-serif">SUB_CATEGORY_OF</text></g><g class="relationship" transform="translate(275.69344890358144 171.15799644755833) rotate(495.0984225768158)"><path class="b-outline" fill="#A5ABB6" stroke="none" d="M 25 0.5 L 86.86532621621814 0.5 L 86.86532621621814 -0.5 L 25 -0.5 Z M 173.48641996621814 0.5 L 235.35174618243627 0.5 L 235.35174618243627 3.5 L 242.35174618243627 0 L 235.35174618243627 -3.5 L 235.35174618243627 -0.5 L 173.48641996621814 -0.5 Z"/><text text-anchor="middle" pointer-events="none" font-size="8px" fill="#000000" x="130.17587309121814" y="3" transform="rotate(180 130.17587309121814 0)" font-family="Helvetica Neue, Helvetica, Arial, sans-serif">SUB_CATEGORY_OF</text></g></g><g class="layer nodes"><g class="node" aria-label="graph-node1614" transform="translate(268.92601719845607,-25.655000055494497)"><circle class="b-outline" cx="0" cy="0" r="25" fill="#C990C0" stroke="#b261a5" stroke-width="2px"/><text class="caption" text-anchor="middle" pointer-events="none" x="0" y="0" font-size="10px" fill="#FFFFFF" font-family="Helvetica Neue, Helvetica, Arial, sans-serif"> Breast</text><text class="caption" text-anchor="middle" pointer-events="none" x="0" y="10" font-size="10px" fill="#FFFFFF" font-family="Helvetica Neue, Helvetica, Arial, sans-serif">3…</text></g><g class="node" aria-label="graph-node1622" transform="translate(-376.3534597570034,143.28594415622598)"><circle class="b-outline" cx="0" cy="0" r="25" fill="#C990C0" stroke="#b261a5" stroke-width="2px"/><text class="caption" text-anchor="middle" pointer-events="none" x="0" y="0" font-size="10px" fill="#FFFFFF" font-family="Helvetica Neue, Helvetica, Arial, sans-serif"> Breast</text><text class="caption" text-anchor="middle" pointer-events="none" x="0" y="10" font-size="10px" fill="#FFFFFF" font-family="Helvetica Neue, Helvetica, Arial, sans-serif"> Neopl…</text></g><g class="node" aria-label="graph-node741" transform="translate(-102.98417804245852,116.96148165228398)"><circle class="b-outline" cx="0" cy="0" r="25" fill="#C990C0" stroke="#b261a5" stroke-width="2px"/><text class="caption" text-anchor="middle" pointer-events="none" x="0" y="5" font-size="10px" fill="#FFFFFF" font-family="Helvetica Neue, Helvetica, Arial, sans-serif"> Angiosar…</text></g><g class="node" aria-label="graph-node1615" transform="translate(-462.50513587726385,-29.34749912473931)"><circle class="b-outline" cx="0" cy="0" r="25" fill="#C990C0" stroke="#b261a5" stroke-width="2px"/><text class="caption" text-anchor="middle" pointer-events="none" x="0" y="-5" font-size="10px" fill="#FFFFFF" font-family="Helvetica Neue, Helvetica, Arial, sans-serif"> Breast</text><text class="caption" text-anchor="middle" pointer-events="none" x="0" y="5" font-size="10px" fill="#FFFFFF" font-family="Helvetica Neue, Helvetica, Arial, sans-serif"> Cancer,</text><text class="caption" text-anchor="middle" pointer-events="none" x="0" y="15" font-size="10px" fill="#FFFFFF" font-family="Helvetica Neue, Helvetica, Arial, sans-serif"> Fami</text></g><g class="node" aria-label="graph-node1618" transform="translate(-380.80345641652974,-81.65230426418812)"><circle class="b-outline" cx="0" cy="0" r="25" fill="#C990C0" stroke="#b261a5" stroke-width="2px"/><text class="caption" text-anchor="middle" pointer-events="none" x="0" y="0" font-size="10px" fill="#FFFFFF" font-family="Helvetica Neue, Helvetica, Arial, sans-serif"> Breast</text><text class="caption" text-anchor="middle" pointer-events="none" x="0" y="10" font-size="10px" fill="#FFFFFF" font-family="Helvetica Neue, Helvetica, Arial, sans-serif"> Carcin…</text></g><g class="node" aria-label="graph-node1620" transform="translate(-294.3394509216301,340.3300951642352)"><circle class="b-outline" cx="0" cy="0" r="25" fill="#C990C0" stroke="#b261a5" stroke-width="2px"/><text class="caption" text-anchor="middle" pointer-events="none" x="0" y="0" font-size="10px" fill="#FFFFFF" font-family="Helvetica Neue, Helvetica, Arial, sans-serif"> Breast</text><text class="caption" text-anchor="middle" pointer-events="none" x="0" y="10" font-size="10px" fill="#FFFFFF" font-family="Helvetica Neue, Helvetica, Arial, sans-serif"> Disea…</text></g><g class="node" aria-label="graph-node1623" transform="translate(-457.1897040051324,68.29119130540334)"><circle class="b-outline" cx="0" cy="0" r="25" fill="#C990C0" stroke="#b261a5" stroke-width="2px"/><text class="caption" text-anchor="middle" pointer-events="none" x="0" y="0" font-size="10px" fill="#FFFFFF" font-family="Helvetica Neue, Helvetica, Arial, sans-serif"> Breast</text><text class="caption" text-anchor="middle" pointer-events="none" x="0" y="10" font-size="10px" fill="#FFFFFF" font-family="Helvetica Neue, Helvetica, Arial, sans-serif"> Neopl…</text></g><g class="node" aria-label="graph-node1624" transform="translate(-540.4013792575983,121.5745696827927)"><circle class="b-outline" cx="0" cy="0" r="25" fill="#C990C0" stroke="#b261a5" stroke-width="2px"/><text class="caption" text-anchor="middle" pointer-events="none" x="0" y="5" font-size="10px" fill="#FFFFFF" font-family="Helvetica Neue, Helvetica, Arial, sans-serif"> BREAS…</text></g><g class="node" aria-label="graph-node1625" transform="translate(-525.7089523157154,217.37986458210895)"><circle class="b-outline" cx="0" cy="0" r="25" fill="#C990C0" stroke="#b261a5" stroke-width="2px"/><text class="caption" text-anchor="middle" pointer-events="none" x="0" y="5" font-size="10px" fill="#FFFFFF" font-family="Helvetica Neue, Helvetica, Arial, sans-serif"> BREAS…</text></g><g class="node" aria-label="graph-node1626" transform="translate(-488.3655333929932,308.93901142764463)"><circle class="b-outline" cx="0" cy="0" r="25" fill="#C990C0" stroke="#b261a5" stroke-width="2px"/><text class="caption" text-anchor="middle" pointer-events="none" x="0" y="5" font-size="10px" fill="#FFFFFF" font-family="Helvetica Neue, Helvetica, Arial, sans-serif"> BREAS…</text></g><g class="node" aria-label="graph-node1627" transform="translate(-326.9649110811711,248.64890041176216)"><circle class="b-outline" cx="0" cy="0" r="25" fill="#C990C0" stroke="#b261a5" stroke-width="2px"/><text class="caption" text-anchor="middle" pointer-events="none" x="0" y="5" font-size="10px" fill="#FFFFFF" font-family="Helvetica Neue, Helvetica, Arial, sans-serif"> BREAS…</text></g><g class="node" aria-label="graph-node1816" transform="translate(-261.57314066512714,174.33773724757282)"><circle class="b-outline" cx="0" cy="0" r="25" fill="#C990C0" stroke="#b261a5" stroke-width="2px"/><text class="caption" text-anchor="middle" pointer-events="none" x="0" y="5" font-size="10px" fill="#FFFFFF" font-family="Helvetica Neue, Helvetica, Arial, sans-serif"> Carcino…</text></g><g class="node" aria-label="graph-node1828" transform="translate(-286.37745873415986,59.68605995933557)"><circle class="b-outline" cx="0" cy="0" r="25" fill="#C990C0" stroke="#b261a5" stroke-width="2px"/><text class="caption" text-anchor="middle" pointer-events="none" x="0" y="5" font-size="10px" fill="#FFFFFF" font-family="Helvetica Neue, Helvetica, Arial, sans-serif"> Carcino…</text></g><g class="node" aria-label="graph-node4491" transform="translate(-374.8007198910953,14.410077851387362)"><circle class="b-outline" cx="0" cy="0" r="25" fill="#C990C0" stroke="#b261a5" stroke-width="2px"/><text class="caption" text-anchor="middle" pointer-events="none" x="0" y="0" font-size="10px" fill="#FFFFFF" font-family="Helvetica Neue, Helvetica, Arial, sans-serif"> Erosive</text><text class="caption" text-anchor="middle" pointer-events="none" x="0" y="10" font-size="10px" fill="#FFFFFF" font-family="Helvetica Neue, Helvetica, Arial, sans-serif"> Adeno…</text></g><g class="node" aria-label="graph-node5711" transform="translate(-205.52523427360114,3.9414043025907564)"><circle class="b-outline" cx="0" cy="0" r="25" fill="#C990C0" stroke="#b261a5" stroke-width="2px"/><text class="caption" text-anchor="middle" pointer-events="none" x="0" y="0" font-size="10px" fill="#FFFFFF" font-family="Helvetica Neue, Helvetica, Arial, sans-serif"> Hereditary</text><text class="caption" text-anchor="middle" pointer-events="none" x="0" y="10" font-size="10px" fill="#FFFFFF" font-family="Helvetica Neue, Helvetica, Arial, sans-serif">a…</text></g><g class="node" aria-label="graph-node6548" transform="translate(-197.82099590906006,100.88042814158321)"><circle class="b-outline" cx="0" cy="0" r="25" fill="#C990C0" stroke="#b261a5" stroke-width="2px"/><text class="caption" text-anchor="middle" pointer-events="none" x="0" y="5" font-size="10px" fill="#FFFFFF" font-family="Helvetica Neue, Helvetica, Arial, sans-serif"> Inflamm…</text></g><g class="node" aria-label="graph-node8418" transform="translate(-293.6112935398075,-38.42358523527039)"><circle class="b-outline" cx="0" cy="0" r="25" fill="#C990C0" stroke="#b261a5" stroke-width="2px"/><text class="caption" text-anchor="middle" pointer-events="none" x="0" y="5" font-size="10px" fill="#FFFFFF" font-family="Helvetica Neue, Helvetica, Arial, sans-serif"> MULTIP…</text></g><g class="node" aria-label="graph-node8815" transform="translate(-543.4708767709119,24.63932775581932)"><circle class="b-outline" cx="0" cy="0" r="25" fill="#C990C0" stroke="#b261a5" stroke-width="2px"/><text class="caption" text-anchor="middle" pointer-events="none" x="0" y="5" font-size="10px" fill="#FFFFFF" font-family="Helvetica Neue, Helvetica, Arial, sans-serif"> Neoplas…</text></g><g class="node" aria-label="graph-node10745" transform="translate(-163.72553926542855,193.68513604573477)"><circle class="b-outline" cx="0" cy="0" r="25" fill="#C990C0" stroke="#b261a5" stroke-width="2px"/><text class="caption" text-anchor="middle" pointer-events="none" x="0" y="0" font-size="10px" fill="#FFFFFF" font-family="Helvetica Neue, Helvetica, Arial, sans-serif"> Radiation</text><text class="caption" text-anchor="middle" pointer-events="none" x="0" y="10" font-size="10px" fill="#FFFFFF" font-family="Helvetica Neue, Helvetica, Arial, sans-serif">a…</text></g><g class="node" aria-label="graph-node11342" transform="translate(-427.8494829757397,233.3579810344287)"><circle class="b-outline" cx="0" cy="0" r="25" fill="#C990C0" stroke="#b261a5" stroke-width="2px"/><text class="caption" text-anchor="middle" pointer-events="none" x="0" y="0" font-size="10px" fill="#FFFFFF" font-family="Helvetica Neue, Helvetica, Arial, sans-serif"> Secretory</text><text class="caption" text-anchor="middle" pointer-events="none" x="0" y="10" font-size="10px" fill="#FFFFFF" font-family="Helvetica Neue, Helvetica, Arial, sans-serif">ca…</text></g><g class="node" aria-label="graph-node12640" transform="translate(-231.064181747678,266.7190373983372)"><circle class="b-outline" cx="0" cy="0" r="25" fill="#C990C0" stroke="#b261a5" stroke-width="2px"/><text class="caption" text-anchor="middle" pointer-events="none" x="0" y="-5" font-size="10px" fill="#FFFFFF" font-family="Helvetica Neue, Helvetica, Arial, sans-serif"> Triple</text><text class="caption" text-anchor="middle" pointer-events="none" x="0" y="5" font-size="10px" fill="#FFFFFF" font-family="Helvetica Neue, Helvetica, Arial, sans-serif"> Negative</text><text class="caption" text-anchor="middle" pointer-events="none" x="0" y="15" font-size="10px" fill="#FFFFFF" font-family="Helvetica Neue, Helvetica, Arial, sans-serif"> Bre</text></g><g class="node" aria-label="graph-node12756" transform="translate(-390.0883161728393,323.27682100758045)"><circle class="b-outline" cx="0" cy="0" r="25" fill="#C990C0" stroke="#b261a5" stroke-width="2px"/><text class="caption" text-anchor="middle" pointer-events="none" x="0" y="0" font-size="10px" fill="#FFFFFF" font-family="Helvetica Neue, Helvetica, Arial, sans-serif"> Unilateral</text><text class="caption" text-anchor="middle" pointer-events="none" x="0" y="10" font-size="10px" fill="#FFFFFF" font-family="Helvetica Neue, Helvetica, Arial, sans-serif">N…</text></g><g class="node" aria-label="graph-node5586" transform="translate(-22.771134960576468,178.25646124383894)"><circle class="b-outline" cx="0" cy="0" r="25" fill="#C990C0" stroke="#b261a5" stroke-width="2px"/><text class="caption" text-anchor="middle" pointer-events="none" x="0" y="5" font-size="10px" fill="#FFFFFF" font-family="Helvetica Neue, Helvetica, Arial, sans-serif"> Hemang…</text></g><g class="node" aria-label="graph-node10328" transform="translate(82.80877724631517,174.87171057140387)"><circle class="b-outline" cx="0" cy="0" r="25" fill="#C990C0" stroke="#b261a5" stroke-width="2px"/><text class="caption" text-anchor="middle" pointer-events="none" x="0" y="5" font-size="10px" fill="#FFFFFF" font-family="Helvetica Neue, Helvetica, Arial, sans-serif"> Postmas…</text></g><g class="node" aria-label="graph-node1617" transform="translate(275.69344890358144,171.15799644755833)"><circle class="b-outline" cx="0" cy="0" r="25" fill="#C990C0" stroke="#b261a5" stroke-width="2px"/><text class="caption" text-anchor="middle" pointer-events="none" x="0" y="-5" font-size="10px" fill="#FFFFFF" font-family="Helvetica Neue, Helvetica, Arial, sans-serif"> Breast</text><text class="caption" text-anchor="middle" pointer-events="none" x="0" y="5" font-size="10px" fill="#FFFFFF" font-family="Helvetica Neue, Helvetica, Arial, sans-serif"> Cancer</text><text class="caption" text-anchor="middle" pointer-events="none" x="0" y="15" font-size="10px" fill="#FFFFFF" font-family="Helvetica Neue, Helvetica, Arial, sans-serif"> Lym…</text></g><g class="node" aria-label="graph-node7473" transform="translate(-32.418131023995954,312.3158700990791)"><circle class="b-outline" cx="0" cy="0" r="25" fill="#C990C0" stroke="#b261a5" stroke-width="2px"/><text class="caption" text-anchor="middle" pointer-events="none" x="0" y="5" font-size="10px" fill="#FFFFFF" font-family="Helvetica Neue, Helvetica, Arial, sans-serif"> Lymphe…</text></g><g class="node" aria-label="graph-node10331" transform="translate(86.32275205230519,359.87920712844567)"><circle class="b-outline" cx="0" cy="0" r="25" fill="#C990C0" stroke="#b261a5" stroke-width="2px"/><text class="caption" text-anchor="middle" pointer-events="none" x="0" y="5" font-size="10px" fill="#FFFFFF" font-family="Helvetica Neue, Helvetica, Arial, sans-serif"> Postope…</text></g></g></svg>