<svg xmlns="http://www.w3.org/2000/svg" width="740.061279296875" height="468.2431640625" viewBox="-348.5627136230469 -251.67286682128906 740.061279296875 468.2431640625"><title>Neo4j Graph Visualization</title><desc>Created using Neo4j (http://www.neo4j.com/)</desc><g class="layer relationships"><g class="relationship" transform="translate(362.49852752685547 -41.78704638707768) rotate(535.9016408380483)"><path class="b-outline" fill="#A5ABB6" stroke="none" d="M 25 0.5 L 202.32580086593242 0.5 L 202.32580086593242 -0.5 L 25 -0.5 Z M 288.9468946159324 0.5 L 466.27269548186484 0.5 L 466.27269548186484 3.5 L 473.27269548186484 0 L 466.27269548186484 -3.5 L 466.27269548186484 -0.5 L 288.9468946159324 -0.5 Z"/><text text-anchor="middle" pointer-events="none" font-size="8px" fill="#000000" x="245.63634774093242" y="3" transform="rotate(180 245.63634774093242 0)" font-family="Helvetica Neue, Helvetica, Arial, sans-serif">SUB_CATEGORY_OF</text></g><g class="relationship" transform="translate(-299.9045032738922 27.952046137420123) rotate(348.3416996891956)"><path class="b-outline" fill="#A5ABB6" stroke="none" d="M 25 0.5 L 37.633779457261326 0.5 L 37.633779457261326 -0.5 L 25 -0.5 Z M 124.25487320726133 0.5 L 136.88865266452265 0.5 L 136.88865266452265 3.5 L 143.88865266452265 0 L 136.88865266452265 -3.5 L 136.88865266452265 -0.5 L 124.25487320726133 -0.5 Z"/><text text-anchor="middle" pointer-events="none" font-size="8px" fill="#000000" x="80.94432633226133" y="3" font-family="Helvetica Neue, Helvetica, Arial, sans-serif">SUB_CATEGORY_OF</text></g><g class="relationship" transform="translate(-251.84354068539525 113.82860611475203) rotate(314.3576332715245)"><path class="b-outline" fill="#A5ABB6" stroke="none" d="M 25 0.5 L 37.10998884044287 0.5 L 37.10998884044287 -0.5 L 25 -0.5 Z M 123.73108259044287 0.5 L 135.84107143088573 0.5 L 135.84107143088573 3.5 L 142.84107143088573 0 L 135.84107143088573 -3.5 L 135.84107143088573 -0.5 L 123.73108259044287 -0.5 Z"/><text text-anchor="middle" pointer-events="none" font-size="8px" fill="#000000" x="80.42053571544287" y="3" font-family="Helvetica Neue, Helvetica, Arial, sans-serif">SUB_CATEGORY_OF</text></g><g class="relationship" transform="translate(-185.16216380295413 187.57032483769936) rotate(284.65399247357055)"><path class="b-outline" fill="#A5ABB6" stroke="none" d="M 25 0.5 L 53.3197614594158 0.5 L 53.3197614594158 -0.5 L 25 -0.5 Z M 139.94085520941582 0.5 L 168.2606166688316 0.5 L 168.2606166688316 3.5 L 175.2606166688316 0 L 168.2606166688316 -3.5 L 168.2606166688316 -0.5 L 139.94085520941582 -0.5 Z"/><text text-anchor="middle" pointer-events="none" font-size="8px" fill="#000000" x="96.6303083344158" y="3" font-family="Helvetica Neue, Helvetica, Arial, sans-serif">SUB_CATEGORY_OF</text></g><g class="relationship" transform="translate(-88.0687065460204 167.62595424761972) rotate(255.0427048484563)"><path class="b-outline" fill="#A5ABB6" stroke="none" d="M 25 0.5 L 43.138054382374904 0.5 L 43.138054382374904 -0.5 L 25 -0.5 Z M 129.7591481323749 0.5 L 147.8972025147498 0.5 L 147.8972025147498 3.5 L 154.8972025147498 0 L 147.8972025147498 -3.5 L 147.8972025147498 -0.5 L 129.7591481323749 -0.5 Z"/><text text-anchor="middle" pointer-events="none" font-size="8px" fill="#000000" x="86.4486012573749" y="3" transform="rotate(180 86.4486012573749 0)" font-family="Helvetica Neue, Helvetica, Arial, sans-serif">SUB_CATEGORY_OF</text></g><g class="relationship" transform="translate(8.271021434472312 145.27929484154592) rotate(226.6906402804284)"><path class="b-outline" fill="#A5ABB6" stroke="none" d="M 25 0.5 L 57.25948674892649 0.5 L 57.25948674892649 -0.5 L 25 -0.5 Z M 143.8805804989265 0.5 L 176.14006724785298 0.5 L 176.14006724785298 3.5 L 183.14006724785298 0 L 176.14006724785298 -3.5 L 176.14006724785298 -0.5 L 143.8805804989265 -0.5 Z"/><text text-anchor="middle" pointer-events="none" font-size="8px" fill="#000000" x="100.57003362392649" y="3" transform="rotate(180 100.57003362392649 0)" font-family="Helvetica Neue, Helvetica, Arial, sans-serif">SUB_CATEGORY_OF</text></g><g class="relationship" transform="translate(-56.2942341324728 73.80253562762455) rotate(225.6421060417598)"><path class="b-outline" fill="#A5ABB6" stroke="none" d="M 25 0.5 L 27.275830947979117 0.5 L 27.275830947979117 -0.5 L 25 -0.5 Z M 77.58442469797912 0.5 L 79.86025564595823 0.5 L 79.86025564595823 3.5 L 86.86025564595823 0 L 79.86025564595823 -3.5 L 79.86025564595823 -0.5 L 77.58442469797912 -0.5 Z"/><text text-anchor="middle" pointer-events="none" font-size="8px" fill="#000000" x="52.43012782297912" y="3" transform="rotate(180 52.43012782297912 0)" font-family="Helvetica Neue, Helvetica, Arial, sans-serif">SUB_CAT…</text></g><g class="relationship" transform="translate(38.9041935822248 51.31327537907034) rotate(198.34209750991118)"><path class="b-outline" fill="#A5ABB6" stroke="none" d="M 25 0.5 L 44.5322654767826 0.5 L 44.5322654767826 -0.5 L 25 -0.5 Z M 131.15335922678258 0.5 L 150.6856247035652 0.5 L 150.6856247035652 3.5 L 157.6856247035652 0 L 150.6856247035652 -3.5 L 150.6856247035652 -0.5 L 131.15335922678258 -0.5 Z"/><text text-anchor="middle" pointer-events="none" font-size="8px" fill="#000000" x="87.8428123517826" y="3" transform="rotate(180 87.8428123517826 0)" font-family="Helvetica Neue, Helvetica, Arial, sans-serif">SUB_CATEGORY_OF</text></g><g class="relationship" transform="translate(-26.50249859847474 -22.13251104139919) rotate(531.5954453613633)"><path class="b-outline" fill="#A5ABB6" stroke="none" d="M 25 0.5 L 25.930657083231047 0.5 L 25.930657083231047 -0.5 L 25 -0.5 Z M 76.23925083323104 0.5 L 77.1699079164621 0.5 L 77.1699079164621 3.5 L 84.1699079164621 0 L 77.1699079164621 -3.5 L 77.1699079164621 -0.5 L 76.23925083323104 -0.5 Z"/><text text-anchor="middle" pointer-events="none" font-size="8px" fill="#000000" x="51.08495395823105" y="3" transform="rotate(180 51.08495395823105 0)" font-family="Helvetica Neue, Helvetica, Arial, sans-serif">SUB_CAT…</text></g><g class="relationship" transform="translate(309.22606557275583 -222.67286894435034) rotate(513.9919528655086)"><path class="b-outline" fill="#A5ABB6" stroke="none" d="M 25 0.5 L 200.0516067978667 0.5 L 200.0516067978667 -0.5 L 25 -0.5 Z M 286.6727005478667 0.5 L 461.7243073457334 0.5 L 461.7243073457334 3.5 L 468.7243073457334 0 L 461.7243073457334 -3.5 L 461.7243073457334 -0.5 L 286.6727005478667 -0.5 Z"/><text text-anchor="middle" pointer-events="none" font-size="8px" fill="#000000" x="243.3621536728667" y="3" transform="rotate(180 243.3621536728667 0)" font-family="Helvetica Neue, Helvetica, Arial, sans-serif">SUB_CATEGORY_OF</text></g><g class="relationship" transform="translate(67.51319102234734 -43.8281542890385) rotate(529.442107768635)"><path class="b-outline" fill="#A5ABB6" stroke="none" d="M 25 0.5 L 55.93551134469068 0.5 L 55.93551134469068 -0.5 L 25 -0.5 Z M 142.55660509469067 0.5 L 173.49211643938136 0.5 L 173.49211643938136 3.5 L 180.49211643938136 0 L 173.49211643938136 -3.5 L 173.49211643938136 -0.5 L 142.55660509469067 -0.5 Z"/><text text-anchor="middle" pointer-events="none" font-size="8px" fill="#000000" x="99.24605821969068" y="3" transform="rotate(180 99.24605821969068 0)" font-family="Helvetica Neue, Helvetica, Arial, sans-serif">SUB_CATEGORY_OF</text></g><g class="relationship" transform="translate(2.3314826163149704 -116.68185219948053) rotate(501.0754820126286)"><path class="b-outline" fill="#A5ABB6" stroke="none" d="M 25 0.5 L 41.130322211517466 0.5 L 41.130322211517466 -0.5 L 25 -0.5 Z M 127.75141596151747 0.5 L 143.88173817303493 0.5 L 143.88173817303493 3.5 L 150.88173817303493 0 L 143.88173817303493 -3.5 L 143.88173817303493 -0.5 L 127.75141596151747 -0.5 Z"/><text text-anchor="middle" pointer-events="none" font-size="8px" fill="#000000" x="84.44086908651747" y="3" transform="rotate(180 84.44086908651747 0)" font-family="Helvetica Neue, Helvetica, Arial, sans-serif">SUB_CATEGORY_OF</text></g><g class="relationship" transform="translate(-77.62531690576972 -174.38962160747707) rotate(468.68090761011683)"><path class="b-outline" fill="#A5ABB6" stroke="none" d="M 25 0.5 L 41.97364868778608 0.5 L 41.97364868778608 -0.5 L 25 -0.5 Z M 128.59474243778607 0.5 L 145.56839112557216 0.5 L 145.56839112557216 3.5 L 152.56839112557216 0 L 145.56839112557216 -3.5 L 145.56839112557216 -0.5 L 128.59474243778607 -0.5 Z"/><text text-anchor="middle" pointer-events="none" font-size="8px" fill="#000000" x="85.28419556278608" y="3" transform="rotate(180 85.28419556278608 0)" font-family="Helvetica Neue, Helvetica, Arial, sans-serif">SUB_CATEGORY_OF</text></g><g class="relationship" transform="translate(-172.84448802362468 -203.45861375582885) rotate(439.0009393824645)"><path class="b-outline" fill="#A5ABB6" stroke="none" d="M 25 0.5 L 53.676650945183496 0.5 L 53.676650945183496 -0.5 L 25 -0.5 Z M 140.2977446951835 0.5 L 168.974395640367 0.5 L 168.974395640367 3.5 L 175.974395640367 0 L 168.974395640367 -3.5 L 168.974395640367 -0.5 L 140.2977446951835 -0.5 Z"/><text text-anchor="middle" pointer-events="none" font-size="8px" fill="#000000" x="96.9871978201835" y="3" font-family="Helvetica Neue, Helvetica, Arial, sans-serif">SUB_CATEGORY_OF</text></g><g class="relationship" transform="translate(-151.91450776318516 -109.51405314590734) rotate(440.4343970070116)"><path class="b-outline" fill="#A5ABB6" stroke="none" d="M 25 0.5 L 25.891676149772145 0.5 L 25.891676149772145 -0.5 L 25 -0.5 Z M 71.90339489977214 0.5 L 72.79507104954429 0.5 L 72.79507104954429 3.5 L 79.79507104954429 0 L 72.79507104954429 -3.5 L 72.79507104954429 -0.5 L 71.90339489977214 -0.5 Z"/><text text-anchor="middle" pointer-events="none" font-size="8px" fill="#000000" x="48.897535524772145" y="3" font-family="Helvetica Neue, Helvetica, Arial, sans-serif">SUB_CA…</text></g><g class="relationship" transform="translate(-134.5 -6.176055121729419) rotate(229.462276513113)"><path class="b-outline" fill="#A5ABB6" stroke="none" d="M 25 0.5 L 39.192998926559 0.5 L 39.192998926559 -0.5 L 25 -0.5 Z M 125.814092676559 0.5 L 140.007091603118 0.5 L 140.007091603118 3.5 L 147.007091603118 0 L 140.007091603118 -3.5 L 140.007091603118 -0.5 L 125.814092676559 -0.5 Z"/><text text-anchor="middle" pointer-events="none" font-size="8px" fill="#000000" x="82.503545801559" y="3" transform="rotate(180 82.503545801559 0)" font-family="Helvetica Neue, Helvetica, Arial, sans-serif">SUB_CATEGORY_OF</text></g><g class="relationship" transform="translate(-154.54220234784626 96.16835452568873) rotate(281.0800673783091)"><path class="b-outline" fill="#A5ABB6" stroke="none" d="M 25 0.5 L 25.63833507901029 0.5 L 25.63833507901029 -0.5 L 25 -0.5 Z M 71.65005382901029 0.5 L 72.28838890802058 0.5 L 72.28838890802058 3.5 L 79.28838890802058 0 L 72.28838890802058 -3.5 L 72.28838890802058 -0.5 L 71.65005382901029 -0.5 Z"/><text text-anchor="middle" pointer-events="none" font-size="8px" fill="#000000" x="48.64419445401029" y="3" font-family="Helvetica Neue, Helvetica, Arial, sans-serif">SUB_CA…</text></g><g class="relationship" transform="translate(-228.23353452155905 -39.76472793540261) rotate(379.7147403073006)"><path class="b-outline" fill="#A5ABB6" stroke="none" d="M 25 0.5 L 25.94708310023232 0.5 L 25.94708310023232 -0.5 L 25 -0.5 Z M 66.62286435023232 0.5 L 67.56994745046464 0.5 L 67.56994745046464 3.5 L 74.56994745046464 0 L 67.56994745046464 -3.5 L 67.56994745046464 -0.5 L 66.62286435023232 -0.5 Z"/><text text-anchor="middle" pointer-events="none" font-size="8px" fill="#000000" x="46.28497372523232" y="3" font-family="Helvetica Neue, Helvetica, Arial, sans-serif">SUB_C…</text></g><g class="relationship" transform="translate(-319.562714590532 -69.13458563553822) rotate(378.78835845144846)"><path class="b-outline" fill="#A5ABB6" stroke="none" d="M 25 0.5 L 50.928883366938294 0.5 L 50.928883366938294 -0.5 L 25 -0.5 Z M 137.5499771169383 0.5 L 163.4788604838766 0.5 L 163.4788604838766 3.5 L 170.4788604838766 0 L 163.4788604838766 -3.5 L 163.4788604838766 -0.5 L 137.5499771169383 -0.5 Z"/><text text-anchor="middle" pointer-events="none" font-size="8px" fill="#000000" x="94.2394302419383" y="3" font-family="Helvetica Neue, Helvetica, Arial, sans-serif">SUB_CATEGORY_OF</text></g></g><g class="layer nodes"><g class="node" aria-label="graph-node2876" transform="translate(362.49852752685547,-41.78704638707768)"><circle class="b-outline" cx="0" cy="0" r="25" fill="#C990C0" stroke="#b261a5" stroke-width="2px"/><text class="caption" text-anchor="middle" pointer-events="none" x="0" y="5" font-size="10px" fill="#FFFFFF" font-family="Helvetica Neue, Helvetica, Arial, sans-serif"> Comple…</text></g><g class="node" aria-label="graph-node5714" transform="translate(-134.5,-6.176055121729419)"><circle class="b-outline" cx="0" cy="0" r="25" fill="#C990C0" stroke="#b261a5" stroke-width="2px"/><text class="caption" text-anchor="middle" pointer-events="none" x="0" y="0" font-size="10px" fill="#FFFFFF" font-family="Helvetica Neue, Helvetica, Arial, sans-serif"> Hereditary</text><text class="caption" text-anchor="middle" pointer-events="none" x="0" y="10" font-size="10px" fill="#FFFFFF" font-family="Helvetica Neue, Helvetica, Arial, sans-serif"> Compl…</text></g><g class="node" aria-label="graph-node723" transform="translate(-299.9045032738922,27.952046137420123)"><circle class="b-outline" cx="0" cy="0" r="25" fill="#C990C0" stroke="#b261a5" stroke-width="2px"/><text class="caption" text-anchor="middle" pointer-events="none" x="0" y="5" font-size="10px" fill="#FFFFFF" font-family="Helvetica Neue, Helvetica, Arial, sans-serif"> Angioed…</text></g><g class="node" aria-label="graph-node1710" transform="translate(-251.84354068539525,113.82860611475203)"><circle class="b-outline" cx="0" cy="0" r="25" fill="#C990C0" stroke="#b261a5" stroke-width="2px"/><text class="caption" text-anchor="middle" pointer-events="none" x="0" y="0" font-size="10px" fill="#FFFFFF" font-family="Helvetica Neue, Helvetica, Arial, sans-serif"> C6</text><text class="caption" text-anchor="middle" pointer-events="none" x="0" y="10" font-size="10px" fill="#FFFFFF" font-family="Helvetica Neue, Helvetica, Arial, sans-serif"> Defici…</text></g><g class="node" aria-label="graph-node1711" transform="translate(-185.16216380295413,187.57032483769936)"><circle class="b-outline" cx="0" cy="0" r="25" fill="#C990C0" stroke="#b261a5" stroke-width="2px"/><text class="caption" text-anchor="middle" pointer-events="none" x="0" y="0" font-size="10px" fill="#FFFFFF" font-family="Helvetica Neue, Helvetica, Arial, sans-serif"> C9</text><text class="caption" text-anchor="middle" pointer-events="none" x="0" y="10" font-size="10px" fill="#FFFFFF" font-family="Helvetica Neue, Helvetica, Arial, sans-serif"> Defici…</text></g><g class="node" aria-label="graph-node1712" transform="translate(-88.0687065460204,167.62595424761972)"><circle class="b-outline" cx="0" cy="0" r="25" fill="#C990C0" stroke="#b261a5" stroke-width="2px"/><text class="caption" text-anchor="middle" pointer-events="none" x="0" y="-5" font-size="10px" fill="#FFFFFF" font-family="Helvetica Neue, Helvetica, Arial, sans-serif"> C9</text><text class="caption" text-anchor="middle" pointer-events="none" x="0" y="5" font-size="10px" fill="#FFFFFF" font-family="Helvetica Neue, Helvetica, Arial, sans-serif"> Deficiency</text><text class="caption" text-anchor="middle" pointer-events="none" x="0" y="15" font-size="10px" fill="#FFFFFF" font-family="Helvetica Neue, Helvetica, Arial, sans-serif"> with </text></g><g class="node" aria-label="graph-node2871" transform="translate(8.271021434472312,145.27929484154592)"><circle class="b-outline" cx="0" cy="0" r="25" fill="#C990C0" stroke="#b261a5" stroke-width="2px"/><text class="caption" text-anchor="middle" pointer-events="none" x="0" y="5" font-size="10px" fill="#FFFFFF" font-family="Helvetica Neue, Helvetica, Arial, sans-serif"> Comple…</text></g><g class="node" aria-label="graph-node2872" transform="translate(-56.2942341324728,73.80253562762455)"><circle class="b-outline" cx="0" cy="0" r="25" fill="#C990C0" stroke="#b261a5" stroke-width="2px"/><text class="caption" text-anchor="middle" pointer-events="none" x="0" y="5" font-size="10px" fill="#FFFFFF" font-family="Helvetica Neue, Helvetica, Arial, sans-serif"> Comple…</text></g><g class="node" aria-label="graph-node2874" transform="translate(38.9041935822248,51.31327537907034)"><circle class="b-outline" cx="0" cy="0" r="25" fill="#C990C0" stroke="#b261a5" stroke-width="2px"/><text class="caption" text-anchor="middle" pointer-events="none" x="0" y="5" font-size="10px" fill="#FFFFFF" font-family="Helvetica Neue, Helvetica, Arial, sans-serif"> Comple…</text></g><g class="node" aria-label="graph-node2875" transform="translate(-26.50249859847474,-22.13251104139919)"><circle class="b-outline" cx="0" cy="0" r="25" fill="#C990C0" stroke="#b261a5" stroke-width="2px"/><text class="caption" text-anchor="middle" pointer-events="none" x="0" y="5" font-size="10px" fill="#FFFFFF" font-family="Helvetica Neue, Helvetica, Arial, sans-serif"> Comple…</text></g><g class="node" aria-label="graph-node2877" transform="translate(309.22606557275583,-222.67286894435034)"><circle class="b-outline" cx="0" cy="0" r="25" fill="#C990C0" stroke="#b261a5" stroke-width="2px"/><text class="caption" text-anchor="middle" pointer-events="none" x="0" y="5" font-size="10px" fill="#FFFFFF" font-family="Helvetica Neue, Helvetica, Arial, sans-serif"> Comple…</text></g><g class="node" aria-label="graph-node2881" transform="translate(67.51319102234734,-43.8281542890385)"><circle class="b-outline" cx="0" cy="0" r="25" fill="#C990C0" stroke="#b261a5" stroke-width="2px"/><text class="caption" text-anchor="middle" pointer-events="none" x="0" y="5" font-size="10px" fill="#FFFFFF" font-family="Helvetica Neue, Helvetica, Arial, sans-serif"> Comple…</text></g><g class="node" aria-label="graph-node2883" transform="translate(2.3314826163149704,-116.68185219948053)"><circle class="b-outline" cx="0" cy="0" r="25" fill="#C990C0" stroke="#b261a5" stroke-width="2px"/><text class="caption" text-anchor="middle" pointer-events="none" x="0" y="5" font-size="10px" fill="#FFFFFF" font-family="Helvetica Neue, Helvetica, Arial, sans-serif"> Comple…</text></g><g class="node" aria-label="graph-node2884" transform="translate(-77.62531690576972,-174.38962160747707)"><circle class="b-outline" cx="0" cy="0" r="25" fill="#C990C0" stroke="#b261a5" stroke-width="2px"/><text class="caption" text-anchor="middle" pointer-events="none" x="0" y="5" font-size="10px" fill="#FFFFFF" font-family="Helvetica Neue, Helvetica, Arial, sans-serif"> Comple…</text></g><g class="node" aria-label="graph-node2885" transform="translate(-172.84448802362468,-203.45861375582885)"><circle class="b-outline" cx="0" cy="0" r="25" fill="#C990C0" stroke="#b261a5" stroke-width="2px"/><text class="caption" text-anchor="middle" pointer-events="none" x="0" y="5" font-size="10px" fill="#FFFFFF" font-family="Helvetica Neue, Helvetica, Arial, sans-serif"> Comple…</text></g><g class="node" aria-label="graph-node7710" transform="translate(-151.91450776318516,-109.51405314590734)"><circle class="b-outline" cx="0" cy="0" r="25" fill="#C990C0" stroke="#b261a5" stroke-width="2px"/><text class="caption" text-anchor="middle" pointer-events="none" x="0" y="0" font-size="10px" fill="#FFFFFF" font-family="Helvetica Neue, Helvetica, Arial, sans-serif"> MASP2</text><text class="caption" text-anchor="middle" pointer-events="none" x="0" y="10" font-size="10px" fill="#FFFFFF" font-family="Helvetica Neue, Helvetica, Arial, sans-serif"> Defici…</text></g><g class="node" aria-label="graph-node10447" transform="translate(-246.29576116975693,-136.8976958176681)"><circle class="b-outline" cx="0" cy="0" r="25" fill="#C990C0" stroke="#b261a5" stroke-width="2px"/><text class="caption" text-anchor="middle" pointer-events="none" x="0" y="0" font-size="10px" fill="#FFFFFF" font-family="Helvetica Neue, Helvetica, Arial, sans-serif"> Primary</text><text class="caption" text-anchor="middle" pointer-events="none" x="0" y="10" font-size="10px" fill="#FFFFFF" font-family="Helvetica Neue, Helvetica, Arial, sans-serif"> Immu…</text></g><g class="node" aria-label="graph-node10501" transform="translate(-154.54220234784626,96.16835452568873)"><circle class="b-outline" cx="0" cy="0" r="25" fill="#C990C0" stroke="#b261a5" stroke-width="2px"/><text class="caption" text-anchor="middle" pointer-events="none" x="0" y="0" font-size="10px" fill="#FFFFFF" font-family="Helvetica Neue, Helvetica, Arial, sans-serif"> Properdin</text><text class="caption" text-anchor="middle" pointer-events="none" x="0" y="10" font-size="10px" fill="#FFFFFF" font-family="Helvetica Neue, Helvetica, Arial, sans-serif"> Defici…</text></g><g class="node" aria-label="graph-node10502" transform="translate(-228.23353452155905,-39.76472793540261)"><circle class="b-outline" cx="0" cy="0" r="25" fill="#C990C0" stroke="#b261a5" stroke-width="2px"/><text class="caption" text-anchor="middle" pointer-events="none" x="0" y="0" font-size="10px" fill="#FFFFFF" font-family="Helvetica Neue, Helvetica, Arial, sans-serif"> Properdin</text><text class="caption" text-anchor="middle" pointer-events="none" x="0" y="10" font-size="10px" fill="#FFFFFF" font-family="Helvetica Neue, Helvetica, Arial, sans-serif"> Defici…</text></g><g class="node" aria-label="graph-node10503" transform="translate(-319.562714590532,-69.13458563553822)"><circle class="b-outline" cx="0" cy="0" r="25" fill="#C990C0" stroke="#b261a5" stroke-width="2px"/><text class="caption" text-anchor="middle" pointer-events="none" x="0" y="0" font-size="10px" fill="#FFFFFF" font-family="Helvetica Neue, Helvetica, Arial, sans-serif"> Properdin</text><text class="caption" text-anchor="middle" pointer-events="none" x="0" y="10" font-size="10px" fill="#FFFFFF" font-family="Helvetica Neue, Helvetica, Arial, sans-serif"> deficie…</text></g></g></svg>