
<svg xmlns="http://www.w3.org/2000/svg" width="912.5759887695312" height="784.886962890625" viewBox="-654.3320922851562 -503.1206970214844 912.5759887695312 784.886962890625"><title>Neo4j Graph Visualization</title><desc>Created using Neo4j (http://www.neo4j.com/)</desc><g class="layer relationships"><g class="relationship" transform="translate(227.30322074890137 -318.82995649014646) rotate(539.3892157596349)"><path class="b-outline" fill="#A5ABB6" stroke="none" d="M 25 0.5 L 184.6700154118637 0.5 L 184.6700154118637 -0.5 L 25 -0.5 Z M 271.2911091618637 0.5 L 430.9611245737274 0.5 L 430.9611245737274 3.5 L 437.9611245737274 0 L 430.9611245737274 -3.5 L 430.9611245737274 -0.5 L 271.2911091618637 -0.5 Z"/><text text-anchor="middle" pointer-events="none" font-size="8px" fill="#000000" x="227.9805622868637" y="3" transform="rotate(180 227.9805622868637 0)" font-family="Helvetica Neue, Helvetica, Arial, sans-serif">SUB_CATEGORY_OF</text></g><g class="relationship" transform="translate(229.24388790130604 41.84894913062743) rotate(539.5960406711288)"><path class="b-outline" fill="#A5ABB6" stroke="none" d="M 25 0.5 L 181.2993629271749 0.5 L 181.2993629271749 -0.5 L 25 -0.5 Z M 267.9204566771749 0.5 L 424.2198196043498 0.5 L 424.2198196043498 3.5 L 431.2198196043498 0 L 424.2198196043498 -3.5 L 424.2198196043498 -0.5 L 267.9204566771749 -0.5 Z"/><text text-anchor="middle" pointer-events="none" font-size="8px" fill="#000000" x="224.6099098021749" y="3" transform="rotate(180 224.6099098021749 0)" font-family="Helvetica Neue, Helvetica, Arial, sans-serif">SUB_CATEGORY_OF</text></g><g class="relationship" transform="translate(-230.7705941243281 238.3528850220226) rotate(271.128059116187)"><path class="b-outline" fill="#A5ABB6" stroke="none" d="M 25 0.5 L 49.851897721368175 0.5 L 49.851897721368175 -0.5 L 25 -0.5 Z M 136.47299147136818 0.5 L 161.32488919273635 0.5 L 161.32488919273635 3.5 L 168.32488919273635 0 L 161.32488919273635 -3.5 L 161.32488919273635 -0.5 L 136.47299147136818 -0.5 Z"/><text text-anchor="middle" pointer-events="none" font-size="8px" fill="#000000" x="93.16244459636818" y="3" font-family="Helvetica Neue, Helvetica, Arial, sans-serif">SUB_CATEGORY_OF</text></g><g class="relationship" transform="translate(-168.86395870792896 161.52506857971468) rotate(243.48580991378924)"><path class="b-outline" fill="#A5ABB6" stroke="none" d="M 25 0.5 L 27.52911899877364 0.5 L 27.52911899877364 -0.5 L 25 -0.5 Z M 95.61896274877364 0.5 L 98.14808174754728 0.5 L 98.14808174754728 3.5 L 105.14808174754728 0 L 98.14808174754728 -3.5 L 98.14808174754728 -0.5 L 95.61896274877364 -0.5 Z"/><text text-anchor="middle" pointer-events="none" font-size="8px" fill="#000000" x="61.57404087377364" y="3" transform="rotate(180 61.57404087377364 0)" font-family="Helvetica Neue, Helvetica, Arial, sans-serif">SUB_CATEGO…</text></g><g class="relationship" transform="translate(-136.00629682061947 252.7662456090932) rotate(246.34997130433726)"><path class="b-outline" fill="#A5ABB6" stroke="none" d="M 25 0.5 L 66.56165683097328 0.5 L 66.56165683097328 -0.5 L 25 -0.5 Z M 153.18275058097328 0.5 L 194.74440741194655 0.5 L 194.74440741194655 3.5 L 201.74440741194655 0 L 194.74440741194655 -3.5 L 194.74440741194655 -0.5 L 153.18275058097328 -0.5 Z"/><text text-anchor="middle" pointer-events="none" font-size="8px" fill="#000000" x="109.87220370597328" y="3" transform="rotate(180 109.87220370597328 0)" font-family="Helvetica Neue, Helvetica, Arial, sans-serif">SUB_CATEGORY_OF</text></g><g class="relationship" transform="translate(-72.23975933412888 180.54032179967135) rotate(221.2049273363907)"><path class="b-outline" fill="#A5ABB6" stroke="none" d="M 25 0.5 L 56.01601971034536 0.5 L 56.01601971034536 -0.5 L 25 -0.5 Z M 142.63711346034535 0.5 L 173.65313317069072 0.5 L 173.65313317069072 3.5 L 180.65313317069072 0 L 173.65313317069072 -3.5 L 173.65313317069072 -0.5 L 142.63711346034535 -0.5 Z"/><text text-anchor="middle" pointer-events="none" font-size="8px" fill="#000000" x="99.32656658534536" y="3" transform="rotate(180 99.32656658534536 0)" font-family="Helvetica Neue, Helvetica, Arial, sans-serif">SUB_CATEGORY_OF</text></g><g class="relationship" transform="translate(-7.485187894900525 106.03240321993411) rotate(195.52421712118291)"><path class="b-outline" fill="#A5ABB6" stroke="none" d="M 25 0.5 L 67.08433541031704 0.5 L 67.08433541031704 -0.5 L 25 -0.5 Z M 153.70542916031704 0.5 L 195.78976457063408 0.5 L 195.78976457063408 3.5 L 202.78976457063408 0 L 195.78976457063408 -3.5 L 195.78976457063408 -0.5 L 153.70542916031704 -0.5 Z"/><text text-anchor="middle" pointer-events="none" font-size="8px" fill="#000000" x="110.39488228531704" y="3" transform="rotate(180 110.39488228531704 0)" font-family="Helvetica Neue, Helvetica, Arial, sans-serif">SUB_CATEGORY_OF</text></g><g class="relationship" transform="translate(-36.98337433601957 13.217153681857614) rotate(530.4834671290391)"><path class="b-outline" fill="#A5ABB6" stroke="none" d="M 25 0.5 L 49.50557096668847 0.5 L 49.50557096668847 -0.5 L 25 -0.5 Z M 136.12666471668848 0.5 L 160.63223568337693 0.5 L 160.63223568337693 3.5 L 167.63223568337693 0 L 160.63223568337693 -3.5 L 160.63223568337693 -0.5 L 136.12666471668848 -0.5 Z"/><text text-anchor="middle" pointer-events="none" font-size="8px" fill="#000000" x="92.81611784168847" y="3" transform="rotate(180 92.81611784168847 0)" font-family="Helvetica Neue, Helvetica, Arial, sans-serif">SUB_CATEGORY_OF</text></g><g class="relationship" transform="translate(-70.10195261232043 -80.58134738924302) rotate(501.30530868977803)"><path class="b-outline" fill="#A5ABB6" stroke="none" d="M 25 0.5 L 53.67951368042023 0.5 L 53.67951368042023 -0.5 L 25 -0.5 Z M 140.30060743042023 0.5 L 168.98012111084046 0.5 L 168.98012111084046 3.5 L 175.98012111084046 0 L 168.98012111084046 -3.5 L 168.98012111084046 -0.5 L 140.30060743042023 -0.5 Z"/><text text-anchor="middle" pointer-events="none" font-size="8px" fill="#000000" x="96.99006055542023" y="3" transform="rotate(180 96.99006055542023 0)" font-family="Helvetica Neue, Helvetica, Arial, sans-serif">SUB_CATEGORY_OF</text></g><g class="relationship" transform="translate(-132.71178872830745 -7.155423604007891) rotate(511.0112986897581)"><path class="b-outline" fill="#A5ABB6" stroke="none" d="M 25 0.5 L 25.221978442519344 0.5 L 25.221978442519344 -0.5 L 25 -0.5 Z M 75.53057219251934 0.5 L 75.75255063503869 0.5 L 75.75255063503869 3.5 L 82.75255063503869 0 L 75.75255063503869 -3.5 L 75.75255063503869 -0.5 L 75.53057219251934 -0.5 Z"/><text text-anchor="middle" pointer-events="none" font-size="8px" fill="#000000" x="50.376275317519344" y="3" transform="rotate(180 50.376275317519344 0)" font-family="Helvetica Neue, Helvetica, Arial, sans-serif">SUB_CAT…</text></g><g class="relationship" transform="translate(-265.9870456594059 -96.19376108561991) rotate(434.55733953096103)"><path class="b-outline" fill="#A5ABB6" stroke="none" d="M 25 0.5 L 26.464483821995344 0.5 L 26.464483821995344 -0.5 L 25 -0.5 Z M 113.08557757199534 0.5 L 114.55006139399069 0.5 L 114.55006139399069 3.5 L 121.55006139399069 0 L 114.55006139399069 -3.5 L 114.55006139399069 -0.5 L 113.08557757199534 -0.5 Z"/><text text-anchor="middle" pointer-events="none" font-size="8px" fill="#000000" x="69.77503069699534" y="3" font-family="Helvetica Neue, Helvetica, Arial, sans-serif">SUB_CATEGORY_OF</text></g><g class="relationship" transform="translate(-167.03157297816838 -98.61125208253326) rotate(472.64287223730673)"><path class="b-outline" fill="#A5ABB6" stroke="none" d="M 25 0.5 L 31.02737061681941 0.5 L 31.02737061681941 -0.5 L 25 -0.5 Z M 117.64846436681941 0.5 L 123.67583498363882 0.5 L 123.67583498363882 3.5 L 130.67583498363882 0 L 123.67583498363882 -3.5 L 123.67583498363882 -0.5 L 117.64846436681941 -0.5 Z"/><text text-anchor="middle" pointer-events="none" font-size="8px" fill="#000000" x="74.33791749181941" y="3" transform="rotate(180 74.33791749181941 0)" font-family="Helvetica Neue, Helvetica, Arial, sans-serif">SUB_CATEGORY_OF</text></g><g class="relationship" transform="translate(-352.6144324048805 -50.10383619290994) rotate(397.1408998940773)"><path class="b-outline" fill="#A5ABB6" stroke="none" d="M 25 0.5 L 32.00106060749846 0.5 L 32.00106060749846 -0.5 L 25 -0.5 Z M 118.62215435749846 0.5 L 125.62321496499692 0.5 L 125.62321496499692 3.5 L 132.62321496499692 0 L 125.62321496499692 -3.5 L 125.62321496499692 -0.5 L 118.62215435749846 -0.5 Z"/><text text-anchor="middle" pointer-events="none" font-size="8px" fill="#000000" x="75.31160748249846" y="3" font-family="Helvetica Neue, Helvetica, Arial, sans-serif">SUB_CATEGORY_OF</text></g><g class="relationship" transform="translate(-266.53707898504877 147.74349663993115) rotate(291.07684363248455)"><path class="b-outline" fill="#A5ABB6" stroke="none" d="M 25 0.5 L 26.365608744632226 0.5 L 26.365608744632226 -0.5 L 25 -0.5 Z M 76.67420249463223 0.5 L 78.03981123926445 0.5 L 78.03981123926445 3.5 L 85.03981123926445 0 L 78.03981123926445 -3.5 L 78.03981123926445 -0.5 L 76.67420249463223 -0.5 Z"/><text text-anchor="middle" pointer-events="none" font-size="8px" fill="#000000" x="51.519905619632226" y="3" font-family="Helvetica Neue, Helvetica, Arial, sans-serif">SUB_CAT…</text></g><g class="relationship" transform="translate(-426.5636043474394 217.49505297645763) rotate(319.1769222880092)"><path class="b-outline" fill="#A5ABB6" stroke="none" d="M 25 0.5 L 85.07171935877693 0.5 L 85.07171935877693 -0.5 L 25 -0.5 Z M 171.69281310877693 0.5 L 231.76453246755386 0.5 L 231.76453246755386 3.5 L 238.76453246755386 0 L 231.76453246755386 -3.5 L 231.76453246755386 -0.5 L 171.69281310877693 -0.5 Z"/><text text-anchor="middle" pointer-events="none" font-size="8px" fill="#000000" x="128.38226623377693" y="3" font-family="Helvetica Neue, Helvetica, Arial, sans-serif">SUB_CATEGORY_OF</text></g><g class="relationship" transform="translate(-394.3262590055219 39.1311517027493) rotate(362.03074376125596)"><path class="b-outline" fill="#A5ABB6" stroke="none" d="M 25 0.5 L 36.92287445254679 0.5 L 36.92287445254679 -0.5 L 25 -0.5 Z M 123.5439682025468 0.5 L 135.4668426550936 0.5 L 135.4668426550936 3.5 L 142.4668426550936 0 L 135.4668426550936 -3.5 L 135.4668426550936 -0.5 L 123.5439682025468 -0.5 Z"/><text text-anchor="middle" pointer-events="none" font-size="8px" fill="#000000" x="80.2334213275468" y="3" font-family="Helvetica Neue, Helvetica, Arial, sans-serif">SUB_CATEGORY_OF</text></g><g class="relationship" transform="translate(-226.96459276524394 45.06546397492383) rotate(180.09653017032804)"><path class="b-outline" fill="#A5ABB6" stroke="none" d="M 25 0.5 L 152.3734993254139 0.5 L 152.3734993254139 -0.5 L 25 -0.5 Z M 238.9945930754139 0.5 L 366.3680924008278 0.5 L 366.3680924008278 3.5 L 373.3680924008278 0 L 366.3680924008278 -3.5 L 366.3680924008278 -0.5 L 238.9945930754139 -0.5 Z"/><text text-anchor="middle" pointer-events="none" font-size="8px" fill="#000000" x="195.6840462004139" y="3" transform="rotate(180 195.6840462004139 0)" font-family="Helvetica Neue, Helvetica, Arial, sans-serif">SUB_CATEGORY_OF</text></g><g class="relationship" transform="translate(-364.83765918901184 132.97191668527543) rotate(327.47883356309956)"><path class="b-outline" fill="#A5ABB6" stroke="none" d="M 25 0.5 L 34.94599242493918 0.5 L 34.94599242493918 -0.5 L 25 -0.5 Z M 121.56708617493918 0.5 L 131.51307859987836 0.5 L 131.51307859987836 3.5 L 138.51307859987836 0 L 131.51307859987836 -3.5 L 131.51307859987836 -0.5 L 121.56708617493918 -0.5 Z"/><text text-anchor="middle" pointer-events="none" font-size="8px" fill="#000000" x="78.25653929993918" y="3" font-family="Helvetica Neue, Helvetica, Arial, sans-serif">SUB_CATEGORY_OF</text></g><g class="relationship" transform="translate(-102.02652960141785 87.5241830955016) rotate(198.76971994046863)"><path class="b-outline" fill="#A5ABB6" stroke="none" d="M 25 0.5 L 25.544172308893494 0.5 L 25.544172308893494 -0.5 L 25 -0.5 Z M 99.4113598088935 0.5 L 99.95553211778699 0.5 L 99.95553211778699 3.5 L 106.95553211778699 0 L 99.95553211778699 -3.5 L 99.95553211778699 -0.5 L 99.4113598088935 -0.5 Z"/><text text-anchor="middle" pointer-events="none" font-size="8px" fill="#000000" x="62.47776605889349" y="3" transform="rotate(180 62.47776605889349 0)" font-family="Helvetica Neue, Helvetica, Arial, sans-serif">SUB_CATEGOR…</text></g><g class="relationship" transform="translate(-326.17048609049124 223.56521124251464) rotate(299.0642591942485)"><path class="b-outline" fill="#A5ABB6" stroke="none" d="M 25 0.5 L 55.29720141700541 0.5 L 55.29720141700541 -0.5 L 25 -0.5 Z M 141.9182951670054 0.5 L 172.21549658401082 0.5 L 172.21549658401082 3.5 L 179.21549658401082 0 L 172.21549658401082 -3.5 L 172.21549658401082 -0.5 L 141.9182951670054 -0.5 Z"/><text text-anchor="middle" pointer-events="none" font-size="8px" fill="#000000" x="98.60774829200541" y="3" font-family="Helvetica Neue, Helvetica, Arial, sans-serif">SUB_CATEGORY_OF</text></g><g class="relationship" transform="translate(-235.63159867398417 -313.8947936285273) rotate(235.17410720179572)"><path class="b-outline" fill="#A5ABB6" stroke="none" d="M 25 0.5 L 36.22293526653894 0.5 L 36.22293526653894 -0.5 L 25 -0.5 Z M 122.84402901653894 0.5 L 134.06696428307788 0.5 L 134.06696428307788 3.5 L 141.06696428307788 0 L 134.06696428307788 -3.5 L 134.06696428307788 -0.5 L 122.84402901653894 -0.5 Z"/><text text-anchor="middle" pointer-events="none" font-size="8px" fill="#000000" x="79.53348214153894" y="3" transform="rotate(180 79.53348214153894 0)" font-family="Helvetica Neue, Helvetica, Arial, sans-serif">SUB_CATEGORY_OF</text></g><g class="relationship" transform="translate(-312.44467742692143 -195.28088416375667) rotate(302.92665509285706)"><path class="b-outline" fill="#A5ABB6" stroke="none" d="M 25 0.5 L 25.40089646975582 0.5 L 25.40089646975582 -0.5 L 25 -0.5 Z M 108.91261521975582 0.5 L 109.31351168951164 0.5 L 109.31351168951164 3.5 L 116.31351168951164 0 L 109.31351168951164 -3.5 L 109.31351168951164 -0.5 L 108.91261521975582 -0.5 Z"/><text text-anchor="middle" pointer-events="none" font-size="8px" fill="#000000" x="67.15675584475582" y="3" font-family="Helvetica Neue, Helvetica, Arial, sans-serif">SUB_CATEGORY_…</text></g><g class="relationship" transform="translate(-235.49571205312975 -474.1206844284368) rotate(450.04859219669004)"><path class="b-outline" fill="#A5ABB6" stroke="none" d="M 25 0.5 L 33.30242733610743 0.5 L 33.30242733610743 -0.5 L 25 -0.5 Z M 119.92352108610743 0.5 L 128.22594842221486 0.5 L 128.22594842221486 3.5 L 135.22594842221486 0 L 128.22594842221486 -3.5 L 128.22594842221486 -0.5 L 119.92352108610743 -0.5 Z"/><text text-anchor="middle" pointer-events="none" font-size="8px" fill="#000000" x="76.61297421110743" y="3" transform="rotate(180 76.61297421110743 0)" font-family="Helvetica Neue, Helvetica, Arial, sans-serif">SUB_CATEGORY_OF</text></g><g class="relationship" transform="translate(-86.58039465451498 -233.4313549828867) rotate(208.3618400197414)"><path class="b-outline" fill="#A5ABB6" stroke="none" d="M 25 0.5 L 37.880991041037106 0.5 L 37.880991041037106 -0.5 L 25 -0.5 Z M 124.5020847910371 0.5 L 137.3830758320742 0.5 L 137.3830758320742 3.5 L 144.3830758320742 0 L 137.3830758320742 -3.5 L 137.3830758320742 -0.5 L 124.5020847910371 -0.5 Z"/><text text-anchor="middle" pointer-events="none" font-size="8px" fill="#000000" x="81.1915379160371" y="3" transform="rotate(180 81.1915379160371 0)" font-family="Helvetica Neue, Helvetica, Arial, sans-serif">SUB_CATEGORY_OF</text></g><g class="relationship" transform="translate(-51.14450049821368 -324.8062139652201) rotate(536.6152056693954)"><path class="b-outline" fill="#A5ABB6" stroke="none" d="M 25 0.5 L 45.59419933302814 0.5 L 45.59419933302814 -0.5 L 25 -0.5 Z M 132.21529308302814 0.5 L 152.8094924160563 0.5 L 152.8094924160563 3.5 L 159.8094924160563 0 L 152.8094924160563 -3.5 L 152.8094924160563 -0.5 L 132.21529308302814 -0.5 Z"/><text text-anchor="middle" pointer-events="none" font-size="8px" fill="#000000" x="88.90474620802814" y="3" transform="rotate(180 88.90474620802814 0)" font-family="Helvetica Neue, Helvetica, Arial, sans-serif">SUB_CATEGORY_OF</text></g><g class="relationship" transform="translate(-50.68171275286717 -424.1396359148966) rotate(509.20169536016084)"><path class="b-outline" fill="#A5ABB6" stroke="none" d="M 25 0.5 L 60.846763086958276 0.5 L 60.846763086958276 -0.5 L 25 -0.5 Z M 147.46785683695828 0.5 L 183.31461992391655 0.5 L 183.31461992391655 3.5 L 190.31461992391655 0 L 183.31461992391655 -3.5 L 183.31461992391655 -0.5 L 147.46785683695828 -0.5 Z"/><text text-anchor="middle" pointer-events="none" font-size="8px" fill="#000000" x="104.15730996195828" y="3" transform="rotate(180 104.15730996195828 0)" font-family="Helvetica Neue, Helvetica, Arial, sans-serif">SUB_CATEGORY_OF</text></g><g class="relationship" transform="translate(-135.19046398570927 -376.035719315886) rotate(508.2557481005314)"><path class="b-outline" fill="#A5ABB6" stroke="none" d="M 25 0.5 L 27.73261601646555 0.5 L 27.73261601646555 -0.5 L 25 -0.5 Z M 83.37714726646556 0.5 L 86.1097632829311 0.5 L 86.1097632829311 3.5 L 93.1097632829311 0 L 86.1097632829311 -3.5 L 86.1097632829311 -0.5 L 83.37714726646556 -0.5 Z"/><text text-anchor="middle" pointer-events="none" font-size="8px" fill="#000000" x="55.55488164146555" y="3" transform="rotate(180 55.55488164146555 0)" font-family="Helvetica Neue, Helvetica, Arial, sans-serif">SUB_CATE…</text></g><g class="relationship" transform="translate(-382.83229372025534 -366.95128728311926) rotate(379.821010177814)"><path class="b-outline" fill="#A5ABB6" stroke="none" d="M 25 0.5 L 31.424733115911195 0.5 L 31.424733115911195 -0.5 L 25 -0.5 Z M 118.0458268659112 0.5 L 124.47055998182239 0.5 L 124.47055998182239 3.5 L 131.4705599818224 0 L 124.47055998182239 -3.5 L 124.47055998182239 -0.5 L 118.0458268659112 -0.5 Z"/><text text-anchor="middle" pointer-events="none" font-size="8px" fill="#000000" x="74.7352799909112" y="3" font-family="Helvetica Neue, Helvetica, Arial, sans-serif">SUB_CATEGORY_OF</text></g><g class="relationship" transform="translate(-380.82579373511936 -267.3925860244708) rotate(342.2409878012022)"><path class="b-outline" fill="#A5ABB6" stroke="none" d="M 25 0.5 L 29.419056284635005 0.5 L 29.419056284635005 -0.5 L 25 -0.5 Z M 116.040150034635 0.5 L 120.45920631927001 0.5 L 120.45920631927001 3.5 L 127.45920631927001 0 L 120.45920631927001 -3.5 L 120.45920631927001 -0.5 L 116.040150034635 -0.5 Z"/><text text-anchor="middle" pointer-events="none" font-size="8px" fill="#000000" x="72.729603159635" y="3" font-family="Helvetica Neue, Helvetica, Arial, sans-serif">SUB_CATEGORY_OF</text></g><g class="relationship" transform="translate(-178.51572329856376 -197.96088354827563) rotate(243.77242605538777)"><path class="b-outline" fill="#A5ABB6" stroke="none" d="M 25 0.5 L 27.07491781529255 0.5 L 27.07491781529255 -0.5 L 25 -0.5 Z M 95.16476156529255 0.5 L 97.2396793805851 0.5 L 97.2396793805851 3.5 L 104.2396793805851 0 L 97.2396793805851 -3.5 L 97.2396793805851 -0.5 L 95.16476156529255 -0.5 Z"/><text text-anchor="middle" pointer-events="none" font-size="8px" fill="#000000" x="61.11983969029255" y="3" transform="rotate(180 61.11983969029255 0)" font-family="Helvetica Neue, Helvetica, Arial, sans-serif">SUB_CATEGO…</text></g><g class="relationship" transform="translate(-136.9898754587218 -473.8693126753425) rotate(481.6583559754869)"><path class="b-outline" fill="#A5ABB6" stroke="none" d="M 25 0.5 L 47.16024154238036 0.5 L 47.16024154238036 -0.5 L 25 -0.5 Z M 133.78133529238036 0.5 L 155.94157683476072 0.5 L 155.94157683476072 3.5 L 162.94157683476072 0 L 155.94157683476072 -3.5 L 155.94157683476072 -0.5 L 133.78133529238036 -0.5 Z"/><text text-anchor="middle" pointer-events="none" font-size="8px" fill="#000000" x="90.47078841738036" y="3" transform="rotate(180 90.47078841738036 0)" font-family="Helvetica Neue, Helvetica, Arial, sans-serif">SUB_CATEGORY_OF</text></g><g class="relationship" transform="translate(-235.63159867398417 -313.8947936285273) rotate(539.9687728171475)"><path class="b-outline" fill="#A5ABB6" stroke="none" d="M 25 0.5 L 145.8907389437953 0.5 L 145.8907389437953 -0.5 L 25 -0.5 Z M 232.5118326937953 0.5 L 353.4025716375906 0.5 L 353.4025716375906 3.5 L 360.4025716375906 0 L 353.4025716375906 -3.5 L 353.4025716375906 -0.5 L 232.5118326937953 -0.5 Z"/><text text-anchor="middle" pointer-events="none" font-size="8px" fill="#000000" x="189.2012858187953" y="3" transform="rotate(180 189.2012858187953 0)" font-family="Helvetica Neue, Helvetica, Arial, sans-serif">SUB_CATEGORY_OF</text></g></g><g class="layer nodes"><g class="node" aria-label="graph-node1710" transform="translate(229.24388790130604,41.84894913062743)"><circle class="b-outline" cx="0" cy="0" r="25" fill="#C990C0" stroke="#b261a5" stroke-width="2px"/><text class="caption" text-anchor="middle" pointer-events="none" x="0" y="0" font-size="10px" fill="#FFFFFF" font-family="Helvetica Neue, Helvetica, Arial, sans-serif"> C6</text><text class="caption" text-anchor="middle" pointer-events="none" x="0" y="10" font-size="10px" fill="#FFFFFF" font-family="Helvetica Neue, Helvetica, Arial, sans-serif"> Defici…</text></g><g class="node" aria-label="graph-node2852" transform="translate(227.30322074890137,-318.82995649014646)"><circle class="b-outline" cx="0" cy="0" r="25" fill="#C990C0" stroke="#b261a5" stroke-width="2px"/><text class="caption" text-anchor="middle" pointer-events="none" x="0" y="5" font-size="10px" fill="#FFFFFF" font-family="Helvetica Neue, Helvetica, Arial, sans-serif"> COMBI…</text></g><g class="node" aria-label="graph-node8263" transform="translate(-235.63159867398417,-313.8947936285273)"><circle class="b-outline" cx="0" cy="0" r="25" fill="#C990C0" stroke="#b261a5" stroke-width="2px"/><text class="caption" text-anchor="middle" pointer-events="none" x="0" y="5" font-size="10px" fill="#FFFFFF" font-family="Helvetica Neue, Helvetica, Arial, sans-serif"> Mitocho…</text></g><g class="node" aria-label="graph-node5714" transform="translate(-226.96459276524394,45.06546397492383)"><circle class="b-outline" cx="0" cy="0" r="25" fill="#C990C0" stroke="#b261a5" stroke-width="2px"/><text class="caption" text-anchor="middle" pointer-events="none" x="0" y="0" font-size="10px" fill="#FFFFFF" font-family="Helvetica Neue, Helvetica, Arial, sans-serif"> Hereditary</text><text class="caption" text-anchor="middle" pointer-events="none" x="0" y="10" font-size="10px" fill="#FFFFFF" font-family="Helvetica Neue, Helvetica, Arial, sans-serif"> Compl…</text></g><g class="node" aria-label="graph-node723" transform="translate(-230.7705941243281,238.3528850220226)"><circle class="b-outline" cx="0" cy="0" r="25" fill="#C990C0" stroke="#b261a5" stroke-width="2px"/><text class="caption" text-anchor="middle" pointer-events="none" x="0" y="5" font-size="10px" fill="#FFFFFF" font-family="Helvetica Neue, Helvetica, Arial, sans-serif"> Angioed…</text></g><g class="node" aria-label="graph-node1711" transform="translate(-168.86395870792896,161.52506857971468)"><circle class="b-outline" cx="0" cy="0" r="25" fill="#C990C0" stroke="#b261a5" stroke-width="2px"/><text class="caption" text-anchor="middle" pointer-events="none" x="0" y="0" font-size="10px" fill="#FFFFFF" font-family="Helvetica Neue, Helvetica, Arial, sans-serif"> C9</text><text class="caption" text-anchor="middle" pointer-events="none" x="0" y="10" font-size="10px" fill="#FFFFFF" font-family="Helvetica Neue, Helvetica, Arial, sans-serif"> Defici…</text></g><g class="node" aria-label="graph-node1712" transform="translate(-136.00629682061947,252.7662456090932)"><circle class="b-outline" cx="0" cy="0" r="25" fill="#C990C0" stroke="#b261a5" stroke-width="2px"/><text class="caption" text-anchor="middle" pointer-events="none" x="0" y="-5" font-size="10px" fill="#FFFFFF" font-family="Helvetica Neue, Helvetica, Arial, sans-serif"> C9</text><text class="caption" text-anchor="middle" pointer-events="none" x="0" y="5" font-size="10px" fill="#FFFFFF" font-family="Helvetica Neue, Helvetica, Arial, sans-serif"> Deficiency</text><text class="caption" text-anchor="middle" pointer-events="none" x="0" y="15" font-size="10px" fill="#FFFFFF" font-family="Helvetica Neue, Helvetica, Arial, sans-serif"> with </text></g><g class="node" aria-label="graph-node2871" transform="translate(-72.23975933412888,180.54032179967135)"><circle class="b-outline" cx="0" cy="0" r="25" fill="#C990C0" stroke="#b261a5" stroke-width="2px"/><text class="caption" text-anchor="middle" pointer-events="none" x="0" y="5" font-size="10px" fill="#FFFFFF" font-family="Helvetica Neue, Helvetica, Arial, sans-serif"> Comple…</text></g><g class="node" aria-label="graph-node2872" transform="translate(-7.485187894900525,106.03240321993411)"><circle class="b-outline" cx="0" cy="0" r="25" fill="#C990C0" stroke="#b261a5" stroke-width="2px"/><text class="caption" text-anchor="middle" pointer-events="none" x="0" y="5" font-size="10px" fill="#FFFFFF" font-family="Helvetica Neue, Helvetica, Arial, sans-serif"> Comple…</text></g><g class="node" aria-label="graph-node2874" transform="translate(-36.98337433601957,13.217153681857614)"><circle class="b-outline" cx="0" cy="0" r="25" fill="#C990C0" stroke="#b261a5" stroke-width="2px"/><text class="caption" text-anchor="middle" pointer-events="none" x="0" y="5" font-size="10px" fill="#FFFFFF" font-family="Helvetica Neue, Helvetica, Arial, sans-serif"> Comple…</text></g><g class="node" aria-label="graph-node2875" transform="translate(-70.10195261232043,-80.58134738924302)"><circle class="b-outline" cx="0" cy="0" r="25" fill="#C990C0" stroke="#b261a5" stroke-width="2px"/><text class="caption" text-anchor="middle" pointer-events="none" x="0" y="5" font-size="10px" fill="#FFFFFF" font-family="Helvetica Neue, Helvetica, Arial, sans-serif"> Comple…</text></g><g class="node" aria-label="graph-node2876" transform="translate(-132.71178872830745,-7.155423604007891)"><circle class="b-outline" cx="0" cy="0" r="25" fill="#C990C0" stroke="#b261a5" stroke-width="2px"/><text class="caption" text-anchor="middle" pointer-events="none" x="0" y="5" font-size="10px" fill="#FFFFFF" font-family="Helvetica Neue, Helvetica, Arial, sans-serif"> Comple…</text></g><g class="node" aria-label="graph-node2877" transform="translate(-265.9870456594059,-96.19376108561991)"><circle class="b-outline" cx="0" cy="0" r="25" fill="#C990C0" stroke="#b261a5" stroke-width="2px"/><text class="caption" text-anchor="middle" pointer-events="none" x="0" y="5" font-size="10px" fill="#FFFFFF" font-family="Helvetica Neue, Helvetica, Arial, sans-serif"> Comple…</text></g><g class="node" aria-label="graph-node2881" transform="translate(-167.03157297816838,-98.61125208253326)"><circle class="b-outline" cx="0" cy="0" r="25" fill="#C990C0" stroke="#b261a5" stroke-width="2px"/><text class="caption" text-anchor="middle" pointer-events="none" x="0" y="5" font-size="10px" fill="#FFFFFF" font-family="Helvetica Neue, Helvetica, Arial, sans-serif"> Comple…</text></g><g class="node" aria-label="graph-node2883" transform="translate(-352.6144324048805,-50.10383619290994)"><circle class="b-outline" cx="0" cy="0" r="25" fill="#C990C0" stroke="#b261a5" stroke-width="2px"/><text class="caption" text-anchor="middle" pointer-events="none" x="0" y="5" font-size="10px" fill="#FFFFFF" font-family="Helvetica Neue, Helvetica, Arial, sans-serif"> Comple…</text></g><g class="node" aria-label="graph-node2884" transform="translate(-266.53707898504877,147.74349663993115)"><circle class="b-outline" cx="0" cy="0" r="25" fill="#C990C0" stroke="#b261a5" stroke-width="2px"/><text class="caption" text-anchor="middle" pointer-events="none" x="0" y="5" font-size="10px" fill="#FFFFFF" font-family="Helvetica Neue, Helvetica, Arial, sans-serif"> Comple…</text></g><g class="node" aria-label="graph-node2885" transform="translate(-426.5636043474394,217.49505297645763)"><circle class="b-outline" cx="0" cy="0" r="25" fill="#C990C0" stroke="#b261a5" stroke-width="2px"/><text class="caption" text-anchor="middle" pointer-events="none" x="0" y="5" font-size="10px" fill="#FFFFFF" font-family="Helvetica Neue, Helvetica, Arial, sans-serif"> Comple…</text></g><g class="node" aria-label="graph-node7710" transform="translate(-394.3262590055219,39.1311517027493)"><circle class="b-outline" cx="0" cy="0" r="25" fill="#C990C0" stroke="#b261a5" stroke-width="2px"/><text class="caption" text-anchor="middle" pointer-events="none" x="0" y="0" font-size="10px" fill="#FFFFFF" font-family="Helvetica Neue, Helvetica, Arial, sans-serif"> MASP2</text><text class="caption" text-anchor="middle" pointer-events="none" x="0" y="10" font-size="10px" fill="#FFFFFF" font-family="Helvetica Neue, Helvetica, Arial, sans-serif"> Defici…</text></g><g class="node" aria-label="graph-node10501" transform="translate(-364.83765918901184,132.97191668527543)"><circle class="b-outline" cx="0" cy="0" r="25" fill="#C990C0" stroke="#b261a5" stroke-width="2px"/><text class="caption" text-anchor="middle" pointer-events="none" x="0" y="0" font-size="10px" fill="#FFFFFF" font-family="Helvetica Neue, Helvetica, Arial, sans-serif"> Properdin</text><text class="caption" text-anchor="middle" pointer-events="none" x="0" y="10" font-size="10px" fill="#FFFFFF" font-family="Helvetica Neue, Helvetica, Arial, sans-serif"> Defici…</text></g><g class="node" aria-label="graph-node10502" transform="translate(-102.02652960141785,87.5241830955016)"><circle class="b-outline" cx="0" cy="0" r="25" fill="#C990C0" stroke="#b261a5" stroke-width="2px"/><text class="caption" text-anchor="middle" pointer-events="none" x="0" y="0" font-size="10px" fill="#FFFFFF" font-family="Helvetica Neue, Helvetica, Arial, sans-serif"> Properdin</text><text class="caption" text-anchor="middle" pointer-events="none" x="0" y="10" font-size="10px" fill="#FFFFFF" font-family="Helvetica Neue, Helvetica, Arial, sans-serif"> Defici…</text></g><g class="node" aria-label="graph-node10503" transform="translate(-326.17048609049124,223.56521124251464)"><circle class="b-outline" cx="0" cy="0" r="25" fill="#C990C0" stroke="#b261a5" stroke-width="2px"/><text class="caption" text-anchor="middle" pointer-events="none" x="0" y="0" font-size="10px" fill="#FFFFFF" font-family="Helvetica Neue, Helvetica, Arial, sans-serif"> Properdin</text><text class="caption" text-anchor="middle" pointer-events="none" x="0" y="10" font-size="10px" fill="#FFFFFF" font-family="Helvetica Neue, Helvetica, Arial, sans-serif"> deficie…</text></g><g class="node" aria-label="graph-node1586" transform="translate(-330.46988432812674,-450.21770513052064)"><circle class="b-outline" cx="0" cy="0" r="25" fill="#C990C0" stroke="#b261a5" stroke-width="2px"/><text class="caption" text-anchor="middle" pointer-events="none" x="0" y="-5" font-size="10px" fill="#FFFFFF" font-family="Helvetica Neue, Helvetica, Arial, sans-serif"> Brain</text><text class="caption" text-anchor="middle" pointer-events="none" x="0" y="5" font-size="10px" fill="#FFFFFF" font-family="Helvetica Neue, Helvetica, Arial, sans-serif"> Diseases,</text><text class="caption" text-anchor="middle" pointer-events="none" x="0" y="15" font-size="10px" fill="#FFFFFF" font-family="Helvetica Neue, Helvetica, Arial, sans-serif"> Met</text></g><g class="node" aria-label="graph-node1866" transform="translate(-312.44467742692143,-195.28088416375667)"><circle class="b-outline" cx="0" cy="0" r="25" fill="#C990C0" stroke="#b261a5" stroke-width="2px"/><text class="caption" text-anchor="middle" pointer-events="none" x="0" y="5" font-size="10px" fill="#FFFFFF" font-family="Helvetica Neue, Helvetica, Arial, sans-serif"> Cardioe…</text></g><g class="node" aria-label="graph-node2851" transform="translate(-235.49571205312975,-474.1206844284368)"><circle class="b-outline" cx="0" cy="0" r="25" fill="#C990C0" stroke="#b261a5" stroke-width="2px"/><text class="caption" text-anchor="middle" pointer-events="none" x="0" y="5" font-size="10px" fill="#FFFFFF" font-family="Helvetica Neue, Helvetica, Arial, sans-serif"> COMBI…</text></g><g class="node" aria-label="graph-node4257" transform="translate(-86.58039465451498,-233.4313549828867)"><circle class="b-outline" cx="0" cy="0" r="25" fill="#C990C0" stroke="#b261a5" stroke-width="2px"/><text class="caption" text-anchor="middle" pointer-events="none" x="0" y="5" font-size="10px" fill="#FFFFFF" font-family="Helvetica Neue, Helvetica, Arial, sans-serif"> Encepha…</text></g><g class="node" aria-label="graph-node7828" transform="translate(-51.14450049821368,-324.8062139652201)"><circle class="b-outline" cx="0" cy="0" r="25" fill="#C990C0" stroke="#b261a5" stroke-width="2px"/><text class="caption" text-anchor="middle" pointer-events="none" x="0" y="0" font-size="10px" fill="#FFFFFF" font-family="Helvetica Neue, Helvetica, Arial, sans-serif"> MELAS</text><text class="caption" text-anchor="middle" pointer-events="none" x="0" y="10" font-size="10px" fill="#FFFFFF" font-family="Helvetica Neue, Helvetica, Arial, sans-serif"> Syndr…</text></g><g class="node" aria-label="graph-node7975" transform="translate(-50.68171275286717,-424.1396359148966)"><circle class="b-outline" cx="0" cy="0" r="25" fill="#C990C0" stroke="#b261a5" stroke-width="2px"/><text class="caption" text-anchor="middle" pointer-events="none" x="0" y="0" font-size="10px" fill="#FFFFFF" font-family="Helvetica Neue, Helvetica, Arial, sans-serif"> MERRF</text><text class="caption" text-anchor="middle" pointer-events="none" x="0" y="10" font-size="10px" fill="#FFFFFF" font-family="Helvetica Neue, Helvetica, Arial, sans-serif"> Syndr…</text></g><g class="node" aria-label="graph-node8251" transform="translate(-135.19046398570927,-376.035719315886)"><circle class="b-outline" cx="0" cy="0" r="25" fill="#C990C0" stroke="#b261a5" stroke-width="2px"/><text class="caption" text-anchor="middle" pointer-events="none" x="0" y="5" font-size="10px" fill="#FFFFFF" font-family="Helvetica Neue, Helvetica, Arial, sans-serif"> MITOCH…</text></g><g class="node" aria-label="graph-node8255" transform="translate(-382.83229372025534,-366.95128728311926)"><circle class="b-outline" cx="0" cy="0" r="25" fill="#C990C0" stroke="#b261a5" stroke-width="2px"/><text class="caption" text-anchor="middle" pointer-events="none" x="0" y="5" font-size="10px" fill="#FFFFFF" font-family="Helvetica Neue, Helvetica, Arial, sans-serif"> MITOCH…</text></g><g class="node" aria-label="graph-node8256" transform="translate(-380.82579373511936,-267.3925860244708)"><circle class="b-outline" cx="0" cy="0" r="25" fill="#C990C0" stroke="#b261a5" stroke-width="2px"/><text class="caption" text-anchor="middle" pointer-events="none" x="0" y="5" font-size="10px" fill="#FFFFFF" font-family="Helvetica Neue, Helvetica, Arial, sans-serif"> MITOCH…</text></g><g class="node" aria-label="graph-node8258" transform="translate(-178.51572329856376,-197.96088354827563)"><circle class="b-outline" cx="0" cy="0" r="25" fill="#C990C0" stroke="#b261a5" stroke-width="2px"/><text class="caption" text-anchor="middle" pointer-events="none" x="0" y="5" font-size="10px" fill="#FFFFFF" font-family="Helvetica Neue, Helvetica, Arial, sans-serif"> MITOCH…</text></g><g class="node" aria-label="graph-node8264" transform="translate(-136.9898754587218,-473.8693126753425)"><circle class="b-outline" cx="0" cy="0" r="25" fill="#C990C0" stroke="#b261a5" stroke-width="2px"/><text class="caption" text-anchor="middle" pointer-events="none" x="0" y="5" font-size="10px" fill="#FFFFFF" font-family="Helvetica Neue, Helvetica, Arial, sans-serif"> Mitocho…</text></g><g class="node" aria-label="graph-node8265" transform="translate(-621.034113070873,-313.6847426250715)"><circle class="b-outline" cx="0" cy="0" r="25" fill="#C990C0" stroke="#b261a5" stroke-width="2px"/><text class="caption" text-anchor="middle" pointer-events="none" x="0" y="5" font-size="10px" fill="#FFFFFF" font-family="Helvetica Neue, Helvetica, Arial, sans-serif"> Mitocho…</text></g><g class="node" aria-label="graph-node10447" transform="translate(-625.3321197927289,44.39430596036095)"><circle class="b-outline" cx="0" cy="0" r="25" fill="#C990C0" stroke="#b261a5" stroke-width="2px"/><text class="caption" text-anchor="middle" pointer-events="none" x="0" y="0" font-size="10px" fill="#FFFFFF" font-family="Helvetica Neue, Helvetica, Arial, sans-serif"> Primary</text><text class="caption" text-anchor="middle" pointer-events="none" x="0" y="10" font-size="10px" fill="#FFFFFF" font-family="Helvetica Neue, Helvetica, Arial, sans-serif"> Immu…</text></g></g></svg>